<svg width="271" height="50" viewBox="0 0 271 50" fill="none" xmlns="http://www.w3.org/2000/svg"><path d="M25.03 6.38H27.63L26.36 2.71H26.34L25.03 6.38ZM25.24 0.24H27.5L31.24 10.25H28.96L28.2 8.02H24.46L23.67 10.25H21.46L25.24 0.24ZM32.11 0.24H34.31V10.25H32.11V0.24ZM36.48 0.24H37.98V4.74H36.48V0.24ZM43.32 8.54C43.6 8.54 43.85 8.49 44.06 8.37C44.28 8.26 44.45 8.11 44.59 7.92C44.73 7.74 44.84 7.53 44.9 7.29C44.98 7.05 45.01 6.8 45.01 6.54C45.01 6.24 44.99 5.96 44.93 5.69C44.87 5.42 44.78 5.18 44.65 4.98C44.52 4.77 44.35 4.61 44.13 4.49C43.92 4.37 43.64 4.31 43.32 4.31C43.04 4.31 42.79 4.36 42.59 4.47C42.39 4.59 42.22 4.74 42.08 4.94C41.95 5.12 41.85 5.34 41.79 5.6C41.73 5.84 41.7 6.1 41.7 6.37C41.7 6.63 41.73 6.89 41.77 7.15C41.83 7.41 41.92 7.63 42.04 7.84C42.17 8.05 42.34 8.21 42.55 8.34C42.75 8.48 43.01 8.54 43.32 8.54ZM46.91 9.79C46.91 10.08 46.87 10.41 46.78 10.79C46.71 11.16 46.54 11.51 46.28 11.82C46.01 12.15 45.64 12.43 45.14 12.65C44.65 12.88 43.98 12.99 43.15 12.99C42.79 12.99 42.43 12.94 42.06 12.85C41.69 12.76 41.35 12.63 41.05 12.44C40.75 12.25 40.49 12.01 40.29 11.71C40.09 11.42 39.98 11.07 39.95 10.66H41.93C42.02 11.03 42.2 11.29 42.48 11.43C42.75 11.58 43.06 11.65 43.42 11.65C43.98 11.65 44.38 11.49 44.64 11.15C44.9 10.81 45.02 10.39 45.01 9.87V8.92H44.99C44.77 9.3 44.46 9.59 44.06 9.78C43.67 9.95 43.25 10.04 42.81 10.04C42.27 10.04 41.8 9.95 41.41 9.76C41.02 9.57 40.69 9.3 40.44 8.98C40.19 8.64 40 8.25 39.88 7.81C39.77 7.36 39.71 6.89 39.71 6.4C39.71 5.93 39.78 5.48 39.91 5.05C40.05 4.61 40.25 4.23 40.51 3.9C40.77 3.56 41.1 3.3 41.48 3.1C41.87 2.9 42.32 2.81 42.83 2.81C43.3 2.81 43.72 2.89 44.07 3.07C44.44 3.25 44.74 3.55 44.99 3.97H45.01V3H46.91V9.79ZM48.43 5.23C48.46 4.76 48.57 4.38 48.78 4.07C48.98 3.76 49.25 3.51 49.56 3.32C49.88 3.14 50.24 3.01 50.63 2.93C51.03 2.85 51.43 2.81 51.84 2.81C52.2 2.81 52.57 2.83 52.94 2.89C53.32 2.94 53.66 3.03 53.97 3.18C54.28 3.33 54.53 3.54 54.72 3.81C54.92 4.08 55.02 4.43 55.02 4.87V8.64C55.02 8.97 55.04 9.28 55.08 9.58C55.11 9.88 55.18 10.1 55.27 10.25H53.25C53.21 10.14 53.18 10.03 53.15 9.92C53.13 9.79 53.12 9.67 53.11 9.55C52.79 9.88 52.42 10.11 51.99 10.24C51.56 10.37 51.12 10.43 50.67 10.43C50.33 10.43 50 10.39 49.7 10.31C49.4 10.22 49.14 10.09 48.92 9.92C48.69 9.74 48.52 9.51 48.39 9.24C48.26 8.97 48.2 8.65 48.2 8.27C48.2 7.86 48.27 7.53 48.41 7.26C48.56 6.99 48.75 6.78 48.97 6.62C49.21 6.46 49.47 6.34 49.76 6.27C50.06 6.19 50.36 6.12 50.66 6.07C50.96 6.03 51.25 5.99 51.54 5.96C51.83 5.93 52.09 5.89 52.31 5.83C52.54 5.78 52.71 5.7 52.84 5.6C52.98 5.48 53.04 5.32 53.03 5.12C53.03 4.9 52.99 4.74 52.92 4.61C52.85 4.48 52.76 4.39 52.63 4.32C52.52 4.24 52.39 4.2 52.23 4.18C52.08 4.15 51.91 4.14 51.74 4.14C51.34 4.14 51.04 4.22 50.81 4.39C50.59 4.56 50.46 4.84 50.42 5.23H48.43ZM53.03 6.7C52.94 6.78 52.84 6.84 52.7 6.89C52.58 6.92 52.45 6.96 52.3 6.98C52.16 7.01 52.01 7.04 51.85 7.05C51.69 7.07 51.53 7.1 51.37 7.12C51.22 7.15 51.07 7.19 50.92 7.24C50.78 7.28 50.66 7.35 50.54 7.43C50.44 7.51 50.36 7.61 50.29 7.73C50.23 7.85 50.19 8 50.19 8.19C50.19 8.37 50.23 8.52 50.29 8.64C50.36 8.76 50.45 8.86 50.56 8.93C50.67 9 50.8 9.05 50.95 9.07C51.1 9.1 51.26 9.12 51.41 9.12C51.81 9.12 52.11 9.05 52.33 8.92C52.54 8.79 52.7 8.63 52.8 8.46C52.91 8.27 52.97 8.08 52.99 7.9C53.01 7.71 53.03 7.56 53.03 7.45V6.7ZM62.99 3H64.45V4.33H62.99V7.92C62.99 8.26 63.05 8.49 63.16 8.6C63.27 8.71 63.5 8.77 63.83 8.77C63.95 8.77 64.05 8.76 64.16 8.75C64.26 8.74 64.36 8.73 64.45 8.71V10.25C64.28 10.28 64.1 10.3 63.89 10.31C63.68 10.32 63.48 10.32 63.29 10.32C62.98 10.32 62.68 10.3 62.4 10.25C62.13 10.21 61.89 10.14 61.67 10.01C61.47 9.89 61.3 9.72 61.18 9.49C61.06 9.27 61 8.98 61 8.61V4.33H59.8V3H61V0.83H62.99V3ZM67.17 6.63C67.17 6.92 67.19 7.21 67.25 7.49C67.31 7.76 67.4 8.01 67.53 8.23C67.67 8.45 67.85 8.62 68.08 8.75C68.3 8.88 68.58 8.95 68.92 8.95C69.26 8.95 69.54 8.88 69.76 8.75C69.99 8.62 70.18 8.45 70.31 8.23C70.45 8.01 70.55 7.76 70.6 7.49C70.66 7.21 70.69 6.92 70.69 6.63C70.69 6.34 70.66 6.06 70.6 5.78C70.55 5.5 70.45 5.25 70.31 5.03C70.18 4.82 69.99 4.65 69.76 4.52C69.54 4.38 69.26 4.31 68.92 4.31C68.58 4.31 68.3 4.38 68.08 4.52C67.85 4.65 67.67 4.82 67.53 5.03C67.4 5.25 67.31 5.5 67.25 5.78C67.19 6.06 67.17 6.34 67.17 6.63ZM65.17 6.63C65.17 6.05 65.26 5.53 65.44 5.06C65.62 4.59 65.87 4.18 66.2 3.86C66.53 3.52 66.92 3.26 67.38 3.09C67.83 2.9 68.35 2.81 68.92 2.81C69.49 2.81 70 2.9 70.46 3.09C70.93 3.26 71.33 3.52 71.65 3.86C71.98 4.18 72.23 4.59 72.41 5.06C72.59 5.53 72.68 6.05 72.68 6.63C72.68 7.21 72.59 7.74 72.41 8.2C72.23 8.67 71.98 9.07 71.65 9.41C71.33 9.74 70.93 9.99 70.46 10.17C70 10.35 69.49 10.43 68.92 10.43C68.35 10.43 67.83 10.35 67.38 10.17C66.92 9.99 66.53 9.74 66.2 9.41C65.87 9.07 65.62 8.67 65.44 8.2C65.26 7.74 65.17 7.21 65.17 6.63ZM74.42 0.24H75.92V4.74H74.42V0.24ZM81.26 8.54C81.54 8.54 81.78 8.49 82 8.37C82.21 8.26 82.39 8.11 82.53 7.92C82.67 7.74 82.78 7.53 82.84 7.29C82.92 7.05 82.95 6.8 82.95 6.54C82.95 6.24 82.93 5.96 82.87 5.69C82.81 5.42 82.72 5.18 82.59 4.98C82.46 4.77 82.28 4.61 82.07 4.49C81.85 4.37 81.58 4.31 81.26 4.31C80.98 4.31 80.73 4.36 80.53 4.47C80.33 4.59 80.16 4.74 80.02 4.94C79.89 5.12 79.79 5.34 79.73 5.6C79.67 5.84 79.64 6.1 79.64 6.37C79.64 6.63 79.67 6.89 79.71 7.15C79.77 7.41 79.86 7.63 79.98 7.84C80.11 8.05 80.28 8.21 80.48 8.34C80.69 8.48 80.95 8.54 81.26 8.54ZM84.85 9.79C84.85 10.08 84.8 10.41 84.72 10.79C84.65 11.16 84.48 11.51 84.22 11.82C83.95 12.15 83.58 12.43 83.08 12.65C82.58 12.88 81.92 12.99 81.09 12.99C80.73 12.99 80.37 12.94 79.99 12.85C79.63 12.76 79.29 12.63 78.98 12.44C78.68 12.25 78.43 12.01 78.23 11.71C78.03 11.42 77.92 11.07 77.89 10.66H79.87C79.96 11.03 80.14 11.29 80.41 11.43C80.69 11.58 81 11.65 81.35 11.65C81.92 11.65 82.32 11.49 82.57 11.15C82.84 10.81 82.96 10.39 82.95 9.87V8.92H82.93C82.71 9.3 82.4 9.59 82 9.78C81.61 9.95 81.19 10.04 80.75 10.04C80.21 10.04 79.74 9.95 79.35 9.76C78.96 9.57 78.63 9.3 78.38 8.98C78.13 8.64 77.94 8.25 77.82 7.81C77.71 7.36 77.65 6.89 77.65 6.4C77.65 5.93 77.72 5.48 77.85 5.05C77.99 4.61 78.19 4.23 78.45 3.9C78.71 3.56 79.04 3.3 79.42 3.1C79.81 2.9 80.26 2.81 80.77 2.81C81.24 2.81 81.66 2.89 82.01 3.07C82.38 3.25 82.68 3.55 82.93 3.97H82.95V3H84.85V9.79ZM86.9 0.24H88.4V4.74H86.9V0.24ZM90.35 3H92.25V4.35H92.27C92.37 4.12 92.49 3.92 92.65 3.73C92.81 3.53 92.99 3.37 93.2 3.24C93.41 3.1 93.63 2.99 93.86 2.92C94.09 2.84 94.34 2.81 94.59 2.81C94.72 2.81 94.86 2.83 95.02 2.88V4.73C94.93 4.71 94.82 4.69 94.69 4.68C94.56 4.67 94.43 4.66 94.31 4.66C93.94 4.66 93.64 4.72 93.38 4.84C93.13 4.96 92.92 5.13 92.77 5.34C92.62 5.55 92.51 5.79 92.44 6.07C92.38 6.35 92.34 6.66 92.34 6.98V10.25H90.35V3ZM97.85 1.88H95.86V0.24H97.85V1.88ZM95.86 3H97.85V10.25H95.86V3ZM104.87 7.9C104.87 8.11 104.91 8.3 104.99 8.46C105.09 8.61 105.2 8.73 105.34 8.84C105.48 8.93 105.64 9 105.82 9.05C106.01 9.09 106.2 9.12 106.39 9.12C106.54 9.12 106.68 9.1 106.83 9.07C106.99 9.04 107.13 8.99 107.25 8.92C107.38 8.85 107.49 8.75 107.57 8.64C107.66 8.52 107.7 8.37 107.7 8.19C107.7 7.89 107.5 7.67 107.1 7.52C106.7 7.37 106.15 7.22 105.44 7.07C105.15 7 104.87 6.93 104.59 6.84C104.31 6.75 104.07 6.63 103.86 6.49C103.64 6.34 103.47 6.16 103.34 5.95C103.21 5.72 103.14 5.45 103.14 5.13C103.14 4.67 103.23 4.28 103.41 3.98C103.59 3.68 103.84 3.45 104.14 3.28C104.44 3.1 104.77 2.98 105.15 2.92C105.52 2.84 105.9 2.81 106.3 2.81C106.69 2.81 107.07 2.84 107.43 2.92C107.81 2.99 108.14 3.12 108.43 3.3C108.72 3.47 108.96 3.71 109.14 4.01C109.34 4.3 109.46 4.67 109.5 5.12H107.6C107.57 4.74 107.43 4.48 107.17 4.35C106.91 4.21 106.6 4.14 106.24 4.14C106.13 4.14 106.01 4.15 105.88 4.17C105.75 4.17 105.62 4.2 105.51 4.25C105.41 4.3 105.32 4.37 105.25 4.46C105.17 4.54 105.13 4.66 105.13 4.81C105.13 4.99 105.2 5.13 105.33 5.25C105.46 5.36 105.63 5.45 105.83 5.53C106.05 5.59 106.29 5.65 106.56 5.71C106.83 5.76 107.11 5.83 107.39 5.89C107.68 5.96 107.96 6.04 108.23 6.13C108.51 6.22 108.76 6.35 108.98 6.51C109.19 6.66 109.36 6.85 109.5 7.08C109.63 7.31 109.69 7.59 109.69 7.92C109.69 8.4 109.59 8.8 109.4 9.13C109.21 9.45 108.96 9.71 108.65 9.9C108.34 10.1 107.99 10.23 107.59 10.31C107.19 10.39 106.79 10.43 106.38 10.43C105.96 10.43 105.55 10.39 105.15 10.31C104.75 10.22 104.39 10.08 104.07 9.89C103.76 9.69 103.5 9.43 103.3 9.12C103.1 8.79 102.99 8.38 102.97 7.9H104.87ZM112.62 6.63C112.62 6.92 112.65 7.21 112.71 7.49C112.76 7.76 112.86 8.01 112.99 8.23C113.13 8.45 113.31 8.62 113.54 8.75C113.76 8.88 114.04 8.95 114.38 8.95C114.71 8.95 114.99 8.88 115.22 8.75C115.45 8.62 115.64 8.45 115.77 8.23C115.91 8.01 116 7.76 116.06 7.49C116.12 7.21 116.14 6.92 116.14 6.63C116.14 6.34 116.12 6.06 116.06 5.78C116 5.5 115.91 5.25 115.77 5.03C115.64 4.82 115.45 4.65 115.22 4.52C114.99 4.38 114.71 4.31 114.38 4.31C114.04 4.31 113.76 4.38 113.54 4.52C113.31 4.65 113.13 4.82 112.99 5.03C112.86 5.25 112.76 5.5 112.71 5.78C112.65 6.06 112.62 6.34 112.62 6.63ZM110.63 6.63C110.63 6.05 110.72 5.53 110.9 5.06C111.08 4.59 111.33 4.18 111.66 3.86C111.98 3.52 112.38 3.26 112.83 3.09C113.29 2.9 113.81 2.81 114.38 2.81C114.95 2.81 115.46 2.9 115.92 3.09C116.39 3.26 116.78 3.52 117.11 3.86C117.44 4.18 117.69 4.59 117.87 5.06C118.05 5.53 118.14 6.05 118.14 6.63C118.14 7.21 118.05 7.74 117.87 8.2C117.69 8.67 117.44 9.07 117.11 9.41C116.78 9.74 116.39 9.99 115.92 10.17C115.46 10.35 114.95 10.43 114.38 10.43C113.81 10.43 113.29 10.35 112.83 10.17C112.38 9.99 111.98 9.74 111.66 9.41C111.33 9.07 111.08 8.67 110.9 8.2C110.72 7.74 110.63 7.21 110.63 6.63ZM119.88 0.24H121.38V4.74H119.88V0.24ZM123.33 3H125.23V4.35H125.26C125.35 4.12 125.47 3.92 125.63 3.73C125.79 3.53 125.98 3.37 126.18 3.24C126.39 3.1 126.61 2.99 126.84 2.92C127.07 2.84 127.32 2.81 127.57 2.81C127.7 2.81 127.85 2.83 128 2.88V4.73C127.91 4.71 127.8 4.69 127.67 4.68C127.54 4.67 127.41 4.66 127.29 4.66C126.92 4.66 126.62 4.72 126.36 4.84C126.11 4.96 125.91 5.13 125.75 5.34C125.6 5.55 125.49 5.79 125.42 6.07C125.36 6.35 125.33 6.66 125.33 6.98V10.25H123.33V3ZM130.31 6.63C130.31 6.92 130.33 7.21 130.39 7.49C130.45 7.76 130.54 8.01 130.67 8.23C130.81 8.45 130.99 8.62 131.22 8.75C131.44 8.88 131.72 8.95 132.06 8.95C132.4 8.95 132.68 8.88 132.9 8.75C133.13 8.62 133.32 8.45 133.45 8.23C133.59 8.01 133.69 7.76 133.74 7.49C133.8 7.21 133.83 6.92 133.83 6.63C133.83 6.34 133.8 6.06 133.74 5.78C133.69 5.5 133.59 5.25 133.45 5.03C133.32 4.82 133.13 4.65 132.9 4.52C132.68 4.38 132.4 4.31 132.06 4.31C131.72 4.31 131.44 4.38 131.22 4.52C130.99 4.65 130.81 4.82 130.67 5.03C130.54 5.25 130.45 5.5 130.39 5.78C130.33 6.06 130.31 6.34 130.31 6.63ZM128.31 6.63C128.31 6.05 128.4 5.53 128.58 5.06C128.76 4.59 129.01 4.18 129.34 3.86C129.66 3.52 130.06 3.26 130.52 3.09C130.97 2.9 131.49 2.81 132.06 2.81C132.63 2.81 133.14 2.9 133.6 3.09C134.07 3.26 134.47 3.52 134.79 3.86C135.12 4.18 135.37 4.59 135.55 5.06C135.73 5.53 135.82 6.05 135.82 6.63C135.82 7.21 135.73 7.74 135.55 8.2C135.37 8.67 135.12 9.07 134.79 9.41C134.47 9.74 134.07 9.99 133.6 10.17C133.14 10.35 132.63 10.43 132.06 10.43C131.49 10.43 130.97 10.35 130.52 10.17C130.06 9.99 129.66 9.74 129.34 9.41C129.01 9.07 128.76 8.67 128.58 8.2C128.4 7.74 128.31 7.21 128.31 6.63ZM141.12 10.25H138.91L136.43 3H138.51L140.04 7.95H140.07L141.6 3H143.58L141.12 10.25ZM151.79 8.72e-06C151.26 0.99 150.87 2.02 150.63 3.1C150.39 4.17 150.27 5.25 150.27 6.35C150.27 7.48 150.38 8.57 150.62 9.65C150.86 10.72 151.25 11.77 151.78 12.79H150.13C149.54 11.83 149.08 10.81 148.75 9.75C148.43 8.68 148.27 7.6 148.27 6.49C148.27 5.97 148.31 5.42 148.39 4.85C148.47 4.27 148.59 3.7 148.74 3.13C148.9 2.56 149.09 2.01 149.31 1.47C149.55 0.94 149.82 0.45 150.13 8.72e-06H151.79ZM156.11 8.95C156.44 8.95 156.71 8.88 156.93 8.75C157.15 8.62 157.33 8.45 157.46 8.25C157.6 8.03 157.7 7.78 157.75 7.5C157.81 7.22 157.84 6.94 157.84 6.65C157.84 6.36 157.81 6.07 157.74 5.79C157.68 5.51 157.59 5.26 157.44 5.05C157.31 4.82 157.12 4.65 156.9 4.52C156.68 4.38 156.42 4.31 156.1 4.31C155.77 4.31 155.5 4.38 155.27 4.52C155.06 4.65 154.88 4.82 154.74 5.03C154.61 5.25 154.51 5.5 154.46 5.78C154.4 6.06 154.37 6.35 154.37 6.65C154.37 6.94 154.4 7.22 154.46 7.5C154.52 7.78 154.62 8.03 154.75 8.25C154.89 8.45 155.07 8.62 155.3 8.75C155.52 8.88 155.79 8.95 156.11 8.95ZM152.45 3H154.35V3.93H154.37C154.62 3.53 154.93 3.25 155.3 3.07C155.67 2.89 156.09 2.81 156.53 2.81C157.1 2.81 157.59 2.91 158.01 3.13C158.42 3.34 158.76 3.63 159.03 3.98C159.3 4.34 159.5 4.75 159.63 5.23C159.76 5.7 159.83 6.19 159.83 6.7C159.83 7.19 159.76 7.66 159.63 8.11C159.5 8.56 159.3 8.95 159.03 9.3C158.77 9.64 158.44 9.92 158.03 10.13C157.64 10.33 157.18 10.43 156.65 10.43C156.2 10.43 155.78 10.35 155.4 10.17C155.02 9.98 154.72 9.71 154.47 9.35H154.44V12.79H152.45V3ZM161.03 3H162.92V4.35H162.95C163.04 4.12 163.17 3.92 163.33 3.73C163.49 3.53 163.67 3.37 163.87 3.24C164.08 3.1 164.3 2.99 164.53 2.92C164.77 2.84 165.01 2.81 165.26 2.81C165.39 2.81 165.54 2.83 165.7 2.88V4.73C165.6 4.71 165.49 4.69 165.36 4.68C165.23 4.67 165.1 4.66 164.98 4.66C164.62 4.66 164.31 4.72 164.06 4.84C163.8 4.96 163.6 5.13 163.44 5.34C163.29 5.55 163.18 5.79 163.12 6.07C163.05 6.35 163.02 6.66 163.02 6.98V10.25H161.03V3ZM168 6.63C168 6.92 168.03 7.21 168.08 7.49C168.14 7.76 168.23 8.01 168.36 8.23C168.5 8.45 168.69 8.62 168.91 8.75C169.13 8.88 169.41 8.95 169.75 8.95C170.09 8.95 170.37 8.88 170.59 8.75C170.83 8.62 171.01 8.45 171.14 8.23C171.28 8.01 171.38 7.76 171.43 7.49C171.49 7.21 171.52 6.92 171.52 6.63C171.52 6.34 171.49 6.06 171.43 5.78C171.38 5.5 171.28 5.25 171.14 5.03C171.01 4.82 170.83 4.65 170.59 4.52C170.37 4.38 170.09 4.31 169.75 4.31C169.41 4.31 169.13 4.38 168.91 4.52C168.69 4.65 168.5 4.82 168.36 5.03C168.23 5.25 168.14 5.5 168.08 5.78C168.03 6.06 168 6.34 168 6.63ZM166.01 6.63C166.01 6.05 166.09 5.53 166.27 5.06C166.45 4.59 166.7 4.18 167.03 3.86C167.36 3.52 167.75 3.26 168.21 3.09C168.67 2.9 169.18 2.81 169.75 2.81C170.32 2.81 170.84 2.9 171.29 3.09C171.76 3.26 172.16 3.52 172.49 3.86C172.81 4.18 173.07 4.59 173.24 5.06C173.42 5.53 173.51 6.05 173.51 6.63C173.51 7.21 173.42 7.74 173.24 8.2C173.07 8.67 172.81 9.07 172.49 9.41C172.16 9.74 171.76 9.99 171.29 10.17C170.84 10.35 170.32 10.43 169.75 10.43C169.18 10.43 168.67 10.35 168.21 10.17C167.75 9.99 167.36 9.74 167.03 9.41C166.7 9.07 166.45 8.67 166.27 8.2C166.09 7.74 166.01 7.21 166.01 6.63ZM174.86 3H176.74V3.98H176.77C177.03 3.61 177.34 3.32 177.71 3.11C178.08 2.91 178.51 2.81 178.98 2.81C179.44 2.81 179.86 2.89 180.23 3.07C180.62 3.25 180.91 3.56 181.1 4.01C181.32 3.69 181.61 3.41 181.97 3.17C182.35 2.93 182.78 2.81 183.29 2.81C183.67 2.81 184.03 2.85 184.36 2.95C184.68 3.04 184.96 3.19 185.2 3.39C185.43 3.6 185.61 3.87 185.74 4.21C185.88 4.53 185.94 4.93 185.94 5.4V10.25H183.95V6.14C183.95 5.9 183.94 5.67 183.92 5.46C183.9 5.24 183.85 5.05 183.77 4.89C183.68 4.74 183.56 4.61 183.39 4.52C183.23 4.42 183.01 4.38 182.73 4.38C182.45 4.38 182.22 4.43 182.04 4.54C181.87 4.65 181.74 4.79 181.63 4.96C181.54 5.13 181.48 5.33 181.44 5.55C181.41 5.77 181.4 5.99 181.4 6.21V10.25H179.41V6.19C179.41 5.97 179.4 5.76 179.39 5.55C179.38 5.34 179.34 5.14 179.26 4.96C179.2 4.79 179.08 4.65 178.91 4.54C178.75 4.43 178.52 4.38 178.2 4.38C178.1 4.38 177.98 4.4 177.82 4.45C177.67 4.48 177.52 4.56 177.37 4.68C177.23 4.8 177.11 4.96 177.01 5.19C176.9 5.4 176.85 5.69 176.85 6.04V10.25H174.86V3ZM191.18 8.95C191.5 8.95 191.77 8.88 191.99 8.75C192.21 8.62 192.39 8.45 192.52 8.25C192.66 8.03 192.76 7.78 192.82 7.5C192.87 7.22 192.9 6.94 192.9 6.65C192.9 6.36 192.87 6.07 192.8 5.79C192.75 5.51 192.65 5.26 192.51 5.05C192.37 4.82 192.19 4.65 191.96 4.52C191.75 4.38 191.48 4.31 191.16 4.31C190.83 4.31 190.56 4.38 190.33 4.52C190.12 4.65 189.94 4.82 189.8 5.03C189.67 5.25 189.58 5.5 189.52 5.78C189.46 6.06 189.44 6.35 189.44 6.65C189.44 6.94 189.46 7.22 189.52 7.5C189.59 7.78 189.68 8.03 189.81 8.25C189.96 8.45 190.14 8.62 190.36 8.75C190.59 8.88 190.86 8.95 191.18 8.95ZM187.51 3H189.41V3.93H189.44C189.68 3.53 189.99 3.25 190.36 3.07C190.74 2.89 191.15 2.81 191.6 2.81C192.17 2.81 192.66 2.91 193.07 3.13C193.48 3.34 193.82 3.63 194.09 3.98C194.36 4.34 194.56 4.75 194.7 5.23C194.83 5.7 194.89 6.19 194.89 6.7C194.89 7.19 194.83 7.66 194.7 8.11C194.56 8.56 194.36 8.95 194.09 9.3C193.83 9.64 193.5 9.92 193.1 10.13C192.7 10.33 192.24 10.43 191.71 10.43C191.26 10.43 190.84 10.35 190.46 10.17C190.09 9.98 189.78 9.71 189.53 9.35H189.51V12.79H187.51V3ZM198.61 3H200.07V4.33H198.61V7.92C198.61 8.26 198.67 8.49 198.78 8.6C198.89 8.71 199.12 8.77 199.46 8.77C199.57 8.77 199.68 8.76 199.78 8.75C199.88 8.74 199.98 8.73 200.07 8.71V10.25C199.9 10.28 199.72 10.3 199.51 10.31C199.31 10.32 199.1 10.32 198.91 10.32C198.6 10.32 198.31 10.3 198.02 10.25C197.75 10.21 197.51 10.14 197.29 10.01C197.09 9.89 196.93 9.72 196.8 9.49C196.68 9.27 196.62 8.98 196.62 8.61V4.33H195.42V3H196.62V0.83H198.61V3ZM200.18 12.79C200.69 11.8 201.07 10.78 201.31 9.72C201.57 8.65 201.69 7.57 201.69 6.47C201.69 5.34 201.57 4.24 201.33 3.16C201.09 2.07 200.71 1.02 200.19 8.72e-06H201.83C202.42 0.96 202.88 1.98 203.19 3.06C203.52 4.13 203.68 5.22 203.68 6.33C203.68 6.85 203.65 7.4 203.57 7.98C203.5 8.55 203.38 9.12 203.22 9.69C203.07 10.25 202.88 10.8 202.65 11.33C202.41 11.87 202.14 12.35 201.83 12.79H200.18ZM214.39 6.63C214.39 6.33 214.36 6.03 214.29 5.75C214.22 5.47 214.12 5.22 213.98 5.01C213.84 4.79 213.66 4.62 213.45 4.5C213.24 4.37 212.99 4.31 212.69 4.31C212.4 4.31 212.15 4.37 211.93 4.5C211.72 4.62 211.54 4.79 211.4 5.01C211.26 5.22 211.16 5.47 211.09 5.75C211.03 6.03 210.99 6.33 210.99 6.63C210.99 6.93 211.03 7.22 211.09 7.5C211.16 7.78 211.26 8.03 211.4 8.25C211.54 8.46 211.72 8.63 211.93 8.77C212.15 8.89 212.4 8.95 212.69 8.95C212.99 8.95 213.24 8.89 213.45 8.77C213.66 8.63 213.84 8.46 213.98 8.25C214.12 8.03 214.22 7.78 214.29 7.5C214.36 7.22 214.39 6.93 214.39 6.63ZM209.07 0.24H211.06V3.88H211.09C211.34 3.51 211.66 3.24 212.07 3.07C212.5 2.89 212.93 2.81 213.38 2.81C213.74 2.81 214.1 2.88 214.46 3.03C214.81 3.18 215.13 3.41 215.41 3.72C215.7 4.03 215.94 4.42 216.11 4.91C216.29 5.39 216.38 5.96 216.38 6.62C216.38 7.28 216.29 7.86 216.11 8.34C215.94 8.82 215.7 9.21 215.41 9.52C215.13 9.83 214.81 10.06 214.46 10.21C214.1 10.36 213.74 10.43 213.38 10.43C212.85 10.43 212.37 10.35 211.95 10.18C211.53 10.01 211.21 9.73 210.99 9.33H210.97V10.25H209.07V0.24ZM222.53 5.85C222.43 5.34 222.27 4.96 222.02 4.7C221.79 4.44 221.43 4.31 220.94 4.31C220.62 4.31 220.36 4.36 220.14 4.47C219.94 4.58 219.77 4.71 219.64 4.87C219.52 5.03 219.43 5.19 219.37 5.37C219.32 5.55 219.3 5.71 219.29 5.85H222.53ZM219.29 7.11C219.32 7.76 219.48 8.22 219.78 8.51C220.08 8.8 220.51 8.95 221.07 8.95C221.47 8.95 221.82 8.85 222.11 8.65C222.4 8.45 222.57 8.23 222.64 8.01H224.39C224.11 8.88 223.68 9.5 223.1 9.87C222.52 10.25 221.82 10.43 221 10.43C220.43 10.43 219.91 10.35 219.46 10.17C219 9.98 218.61 9.72 218.29 9.38C217.97 9.05 217.73 8.64 217.55 8.18C217.38 7.71 217.3 7.19 217.3 6.63C217.3 6.09 217.38 5.59 217.56 5.12C217.74 4.65 217.99 4.25 218.32 3.91C218.65 3.57 219.03 3.3 219.48 3.1C219.94 2.9 220.45 2.81 221 2.81C221.62 2.81 222.15 2.93 222.61 3.17C223.07 3.4 223.44 3.72 223.73 4.12C224.03 4.53 224.25 4.98 224.38 5.5C224.51 6.01 224.56 6.55 224.52 7.11H219.29ZM225.7 3H227.59V4.35H227.62C227.72 4.12 227.84 3.92 228 3.73C228.16 3.53 228.34 3.37 228.55 3.24C228.75 3.1 228.97 2.99 229.21 2.92C229.44 2.84 229.68 2.81 229.94 2.81C230.07 2.81 230.21 2.83 230.37 2.88V4.73C230.28 4.71 230.16 4.69 230.03 4.68C229.9 4.67 229.78 4.66 229.66 4.66C229.29 4.66 228.98 4.72 228.73 4.84C228.48 4.96 228.27 5.13 228.11 5.34C227.96 5.55 227.85 5.79 227.79 6.07C227.72 6.35 227.69 6.66 227.69 6.98V10.25H225.7V3ZM233.2 1.88H231.21V0.24H233.2V1.88ZM231.21 3H233.2V10.25H231.21V3ZM236.31 7.9C236.31 8.11 236.35 8.3 236.44 8.46C236.53 8.61 236.65 8.73 236.79 8.84C236.93 8.93 237.09 9 237.26 9.05C237.45 9.09 237.64 9.12 237.84 9.12C237.98 9.12 238.12 9.1 238.27 9.07C238.43 9.04 238.57 8.99 238.69 8.92C238.82 8.85 238.93 8.75 239.02 8.64C239.1 8.52 239.14 8.37 239.14 8.19C239.14 7.89 238.94 7.67 238.54 7.52C238.15 7.37 237.6 7.22 236.88 7.07C236.59 7 236.31 6.93 236.03 6.84C235.76 6.75 235.51 6.63 235.3 6.49C235.09 6.34 234.91 6.16 234.78 5.95C234.65 5.72 234.59 5.45 234.59 5.13C234.59 4.67 234.67 4.28 234.85 3.98C235.04 3.68 235.28 3.45 235.58 3.28C235.88 3.1 236.22 2.98 236.59 2.92C236.96 2.84 237.35 2.81 237.74 2.81C238.13 2.81 238.51 2.84 238.88 2.92C239.25 2.99 239.58 3.12 239.87 3.3C240.16 3.47 240.4 3.71 240.59 4.01C240.78 4.3 240.9 4.67 240.94 5.12H239.04C239.02 4.74 238.87 4.48 238.61 4.35C238.35 4.21 238.04 4.14 237.68 4.14C237.57 4.14 237.45 4.15 237.32 4.17C237.19 4.17 237.07 4.2 236.96 4.25C236.85 4.3 236.76 4.37 236.69 4.46C236.61 4.54 236.58 4.66 236.58 4.81C236.58 4.99 236.64 5.13 236.77 5.25C236.9 5.36 237.07 5.45 237.28 5.53C237.49 5.59 237.74 5.65 238.01 5.71C238.28 5.76 238.55 5.83 238.83 5.89C239.12 5.96 239.41 6.04 239.68 6.13C239.96 6.22 240.2 6.35 240.42 6.51C240.63 6.66 240.81 6.85 240.94 7.08C241.07 7.31 241.13 7.59 241.13 7.92C241.13 8.4 241.04 8.8 240.84 9.13C240.65 9.45 240.41 9.71 240.1 9.9C239.79 10.1 239.43 10.23 239.03 10.31C238.64 10.39 238.24 10.43 237.82 10.43C237.4 10.43 236.99 10.39 236.59 10.31C236.19 10.22 235.83 10.08 235.51 9.89C235.2 9.69 234.94 9.43 234.74 9.12C234.54 8.79 234.44 8.38 234.42 7.9H236.31ZM242.3 0.24H244.29V4.01H244.33C244.59 3.59 244.91 3.29 245.3 3.1C245.69 2.9 246.08 2.81 246.45 2.81C246.99 2.81 247.42 2.88 247.76 3.03C248.1 3.17 248.37 3.37 248.57 3.63C248.77 3.88 248.9 4.2 248.98 4.57C249.06 4.94 249.1 5.34 249.1 5.79V10.25H247.11V6.16C247.11 5.56 247.02 5.11 246.83 4.82C246.64 4.53 246.31 4.38 245.83 4.38C245.29 4.38 244.9 4.54 244.66 4.87C244.41 5.18 244.29 5.71 244.29 6.45V10.25H242.3V0.24ZM7.43 22.09H6.21V21.03H7.43V19.95C7.43 19.36 7.6 18.92 7.94 18.62C8.28 18.31 8.78 18.16 9.44 18.16C9.55 18.16 9.67 18.17 9.81 18.19C9.96 18.21 10.1 18.23 10.21 18.27V19.31C10.1 19.27 9.99 19.25 9.87 19.24C9.75 19.22 9.64 19.21 9.53 19.21C9.24 19.21 9.02 19.27 8.86 19.38C8.7 19.49 8.62 19.71 8.62 20.02V21.03H10.03V22.09H8.62V28.28H7.43V22.09ZM11.96 24.67C11.96 25.11 12.02 25.5 12.13 25.84C12.25 26.18 12.41 26.47 12.62 26.7C12.82 26.92 13.06 27.1 13.33 27.22C13.61 27.34 13.91 27.4 14.22 27.4C14.53 27.4 14.82 27.34 15.09 27.22C15.37 27.1 15.61 26.92 15.82 26.7C16.02 26.47 16.18 26.18 16.29 25.84C16.41 25.5 16.48 25.11 16.48 24.67C16.48 24.23 16.41 23.84 16.29 23.5C16.18 23.16 16.02 22.87 15.82 22.63C15.61 22.4 15.37 22.22 15.09 22.1C14.82 21.98 14.53 21.92 14.22 21.92C13.91 21.92 13.61 21.98 13.33 22.1C13.06 22.22 12.82 22.4 12.62 22.63C12.41 22.87 12.25 23.16 12.13 23.5C12.02 23.84 11.96 24.23 11.96 24.67ZM10.7 24.67C10.7 24.13 10.77 23.64 10.92 23.18C11.07 22.71 11.3 22.31 11.59 21.97C11.89 21.63 12.26 21.36 12.7 21.16C13.14 20.96 13.65 20.87 14.22 20.87C14.8 20.87 15.3 20.96 15.73 21.16C16.17 21.36 16.54 21.63 16.84 21.97C17.14 22.31 17.36 22.71 17.51 23.18C17.66 23.64 17.74 24.13 17.74 24.67C17.74 25.2 17.66 25.69 17.51 26.15C17.36 26.61 17.14 27.01 16.84 27.36C16.54 27.7 16.17 27.96 15.73 28.16C15.3 28.35 14.8 28.44 14.22 28.44C13.65 28.44 13.14 28.35 12.7 28.16C12.26 27.96 11.89 27.7 11.59 27.36C11.3 27.01 11.07 26.61 10.92 26.15C10.77 25.69 10.7 25.2 10.7 24.67ZM19.1 21.03H20.22V22.56H20.25C20.54 21.97 20.9 21.54 21.32 21.26C21.74 20.98 22.27 20.85 22.92 20.87V22.13C22.44 22.13 22.03 22.19 21.7 22.32C21.36 22.45 21.09 22.65 20.88 22.9C20.68 23.15 20.53 23.46 20.43 23.82C20.34 24.18 20.29 24.59 20.29 25.06V28.28H19.1V21.03ZM23.81 21.03H24.94V22.1H24.96C25.51 21.28 26.29 20.87 27.31 20.87C27.75 20.87 28.16 20.96 28.53 21.15C28.89 21.33 29.15 21.65 29.3 22.1C29.54 21.71 29.86 21.4 30.25 21.19C30.65 20.97 31.09 20.87 31.57 20.87C31.93 20.87 32.26 20.91 32.55 20.99C32.85 21.07 33.1 21.19 33.31 21.36C33.52 21.52 33.69 21.74 33.8 22.02C33.92 22.28 33.98 22.59 33.98 22.97V28.28H32.79V23.53C32.79 23.31 32.77 23.1 32.73 22.9C32.7 22.7 32.63 22.53 32.52 22.39C32.42 22.24 32.28 22.13 32.09 22.04C31.91 21.96 31.68 21.92 31.39 21.92C30.8 21.92 30.34 22.09 30 22.42C29.66 22.76 29.49 23.21 29.49 23.77V28.28H28.3V23.53C28.3 23.3 28.28 23.08 28.23 22.88C28.19 22.69 28.12 22.52 28.02 22.38C27.92 22.23 27.78 22.12 27.6 22.04C27.43 21.96 27.21 21.92 26.94 21.92C26.59 21.92 26.3 21.99 26.04 22.13C25.8 22.27 25.6 22.44 25.44 22.63C25.29 22.83 25.18 23.03 25.1 23.25C25.04 23.46 25.01 23.63 25.01 23.77V28.28H23.81V21.03ZM41.77 28.28H40.65V27.13H40.62C40.37 27.58 40.05 27.92 39.66 28.13C39.26 28.34 38.8 28.44 38.27 28.44C37.79 28.44 37.39 28.38 37.07 28.26C36.76 28.13 36.5 27.94 36.3 27.71C36.11 27.48 35.97 27.2 35.88 26.88C35.81 26.55 35.77 26.19 35.77 25.8V21.03H36.96V25.94C36.96 26.39 37.09 26.75 37.35 27.01C37.62 27.27 37.98 27.4 38.43 27.4C38.8 27.4 39.11 27.34 39.37 27.23C39.65 27.12 39.87 26.96 40.05 26.76C40.23 26.55 40.36 26.31 40.44 26.04C40.53 25.76 40.58 25.46 40.58 25.13V21.03H41.77V28.28ZM43.63 18.27H44.83V28.28H43.63V18.27ZM53.1 28.26C52.89 28.38 52.6 28.44 52.24 28.44C51.93 28.44 51.68 28.35 51.5 28.19C51.32 28.01 51.23 27.72 51.23 27.33C50.9 27.72 50.52 28.01 50.08 28.19C49.65 28.35 49.18 28.44 48.68 28.44C48.35 28.44 48.04 28.4 47.74 28.33C47.45 28.25 47.2 28.13 46.98 27.98C46.77 27.82 46.59 27.61 46.46 27.36C46.34 27.1 46.28 26.78 46.28 26.42C46.28 26.01 46.35 25.67 46.49 25.41C46.63 25.15 46.81 24.94 47.04 24.78C47.27 24.61 47.53 24.48 47.82 24.4C48.12 24.32 48.43 24.25 48.73 24.19C49.06 24.12 49.37 24.08 49.66 24.05C49.96 24.01 50.22 23.96 50.45 23.91C50.67 23.84 50.85 23.75 50.98 23.64C51.11 23.52 51.17 23.35 51.17 23.12C51.17 22.86 51.12 22.65 51.02 22.49C50.93 22.33 50.8 22.21 50.64 22.13C50.49 22.04 50.32 21.99 50.12 21.96C49.94 21.93 49.75 21.92 49.56 21.92C49.06 21.92 48.64 22.02 48.3 22.21C47.96 22.4 47.78 22.76 47.75 23.29H46.56C46.58 22.84 46.67 22.46 46.84 22.16C47.01 21.85 47.23 21.6 47.51 21.41C47.79 21.22 48.11 21.08 48.47 20.99C48.83 20.91 49.22 20.87 49.63 20.87C49.96 20.87 50.28 20.89 50.6 20.94C50.93 20.98 51.22 21.08 51.48 21.23C51.74 21.37 51.96 21.57 52.11 21.83C52.27 22.09 52.35 22.44 52.35 22.86V26.59C52.35 26.87 52.37 27.07 52.39 27.2C52.43 27.34 52.54 27.4 52.73 27.4C52.83 27.4 52.96 27.38 53.1 27.33V28.26ZM51.16 24.54C51.01 24.65 50.81 24.74 50.57 24.79C50.33 24.84 50.07 24.88 49.8 24.92C49.54 24.95 49.27 24.98 49 25.03C48.73 25.07 48.49 25.13 48.27 25.23C48.06 25.32 47.88 25.46 47.74 25.63C47.61 25.8 47.54 26.04 47.54 26.34C47.54 26.53 47.58 26.7 47.65 26.84C47.74 26.97 47.84 27.08 47.96 27.16C48.09 27.25 48.24 27.31 48.41 27.34C48.58 27.38 48.76 27.4 48.94 27.4C49.34 27.4 49.67 27.35 49.95 27.25C50.23 27.13 50.46 27 50.64 26.84C50.82 26.67 50.95 26.49 51.03 26.31C51.12 26.11 51.16 25.93 51.16 25.76V24.54ZM54.93 26C54.94 26.26 55 26.48 55.12 26.67C55.23 26.85 55.37 26.99 55.55 27.11C55.74 27.21 55.94 27.28 56.17 27.33C56.4 27.38 56.64 27.4 56.88 27.4C57.07 27.4 57.27 27.39 57.47 27.36C57.68 27.33 57.87 27.28 58.03 27.2C58.21 27.13 58.36 27.02 58.47 26.88C58.58 26.73 58.64 26.55 58.64 26.32C58.64 26.01 58.52 25.78 58.29 25.62C58.05 25.46 57.76 25.33 57.4 25.24C57.06 25.14 56.68 25.05 56.27 24.97C55.86 24.89 55.47 24.78 55.12 24.64C54.77 24.49 54.48 24.28 54.25 24.02C54.01 23.76 53.9 23.39 53.9 22.93C53.9 22.56 53.98 22.25 54.14 21.99C54.3 21.73 54.51 21.52 54.77 21.36C55.03 21.19 55.32 21.07 55.64 20.99C55.96 20.91 56.29 20.87 56.6 20.87C57.02 20.87 57.39 20.9 57.74 20.98C58.09 21.04 58.39 21.16 58.65 21.34C58.92 21.51 59.14 21.74 59.3 22.04C59.46 22.33 59.55 22.7 59.58 23.14H58.38C58.37 22.9 58.31 22.71 58.2 22.56C58.1 22.4 57.97 22.28 57.81 22.18C57.65 22.09 57.47 22.02 57.28 21.99C57.09 21.94 56.9 21.92 56.7 21.92C56.52 21.92 56.34 21.93 56.15 21.96C55.98 21.99 55.81 22.04 55.66 22.11C55.51 22.18 55.39 22.27 55.3 22.39C55.21 22.51 55.16 22.66 55.16 22.84C55.16 23.05 55.23 23.22 55.37 23.36C55.52 23.49 55.71 23.6 55.93 23.7C56.15 23.78 56.41 23.86 56.69 23.92C56.97 23.98 57.25 24.04 57.53 24.11C57.83 24.17 58.12 24.25 58.4 24.34C58.69 24.44 58.94 24.56 59.16 24.72C59.38 24.87 59.56 25.06 59.69 25.3C59.83 25.53 59.9 25.82 59.9 26.17C59.9 26.61 59.81 26.97 59.62 27.26C59.44 27.55 59.2 27.78 58.9 27.96C58.61 28.14 58.28 28.26 57.91 28.33C57.54 28.4 57.18 28.44 56.81 28.44C56.41 28.44 56.03 28.4 55.66 28.31C55.3 28.23 54.98 28.09 54.7 27.91C54.42 27.71 54.19 27.46 54.02 27.15C53.85 26.83 53.76 26.45 53.74 26H54.93ZM62.48 19.73H61.29V18.27H62.48V19.73ZM61.29 21.03H62.48V28.28H61.29V21.03ZM64.33 21.03H65.45V22.18H65.48C65.97 21.3 66.76 20.87 67.83 20.87C68.31 20.87 68.71 20.93 69.03 21.06C69.34 21.19 69.6 21.37 69.8 21.61C69.99 21.84 70.13 22.12 70.2 22.45C70.29 22.77 70.33 23.12 70.33 23.52V28.28H69.14V23.38C69.14 22.93 69.01 22.57 68.74 22.31C68.48 22.05 68.12 21.92 67.66 21.92C67.3 21.92 66.98 21.97 66.71 22.09C66.45 22.2 66.23 22.36 66.05 22.56C65.87 22.77 65.74 23.01 65.65 23.29C65.56 23.56 65.52 23.86 65.52 24.19V28.28H64.33V21.03ZM73.38 19.73H72.19V18.27H73.38V19.73ZM72.19 21.03H73.38V28.28H72.19V21.03ZM80 24.67C80 25.11 80.06 25.5 80.17 25.84C80.29 26.18 80.46 26.47 80.66 26.7C80.87 26.92 81.11 27.1 81.38 27.22C81.66 27.34 81.95 27.4 82.26 27.4C82.57 27.4 82.86 27.34 83.13 27.22C83.41 27.1 83.65 26.92 83.86 26.7C84.06 26.47 84.22 26.18 84.34 25.84C84.46 25.5 84.52 25.11 84.52 24.67C84.52 24.23 84.46 23.84 84.34 23.5C84.22 23.16 84.06 22.87 83.86 22.63C83.65 22.4 83.41 22.22 83.13 22.1C82.86 21.98 82.57 21.92 82.26 21.92C81.95 21.92 81.66 21.98 81.38 22.1C81.11 22.22 80.87 22.4 80.66 22.63C80.46 22.87 80.29 23.16 80.17 23.5C80.06 23.84 80 24.23 80 24.67ZM78.74 24.67C78.74 24.13 78.81 23.64 78.96 23.18C79.11 22.71 79.34 22.31 79.64 21.97C79.94 21.63 80.31 21.36 80.75 21.16C81.19 20.96 81.69 20.87 82.26 20.87C82.84 20.87 83.34 20.96 83.77 21.16C84.21 21.36 84.58 21.63 84.88 21.97C85.18 22.31 85.41 22.71 85.56 23.18C85.71 23.64 85.78 24.13 85.78 24.67C85.78 25.2 85.71 25.69 85.56 26.15C85.41 26.61 85.18 27.01 84.88 27.36C84.58 27.7 84.21 27.96 83.77 28.16C83.34 28.35 82.84 28.44 82.26 28.44C81.69 28.44 81.19 28.35 80.75 28.16C80.31 27.96 79.94 27.7 79.64 27.36C79.34 27.01 79.11 26.61 78.96 26.15C78.81 25.69 78.74 25.2 78.74 24.67ZM87.76 18.27H88.71V21.89H87.76V18.27ZM91.05 21.03H92.17V22.56H92.2C92.49 21.97 92.84 21.54 93.26 21.26C93.68 20.98 94.22 20.85 94.86 20.87V22.13C94.39 22.13 93.98 22.19 93.64 22.32C93.31 22.45 93.03 22.65 92.83 22.9C92.62 23.15 92.47 23.46 92.38 23.82C92.29 24.18 92.24 24.59 92.24 25.06V28.28H91.05V21.03ZM101.62 27.67C101.62 28.85 101.35 29.74 100.8 30.33C100.26 30.92 99.41 31.22 98.25 31.22C97.92 31.22 97.57 31.18 97.21 31.1C96.87 31.03 96.55 30.91 96.26 30.74C95.98 30.57 95.75 30.35 95.56 30.08C95.37 29.81 95.27 29.48 95.25 29.08H96.44C96.45 29.3 96.52 29.48 96.64 29.63C96.77 29.78 96.92 29.9 97.1 30C97.29 30.09 97.49 30.15 97.7 30.19C97.92 30.24 98.13 30.26 98.32 30.26C98.71 30.26 99.05 30.19 99.32 30.05C99.59 29.92 99.81 29.73 99.99 29.49C100.17 29.26 100.3 28.97 100.37 28.64C100.45 28.3 100.5 27.93 100.5 27.53V27.05H100.47C100.26 27.5 99.95 27.83 99.53 28.05C99.12 28.25 98.68 28.35 98.21 28.35C97.67 28.35 97.2 28.26 96.79 28.06C96.39 27.86 96.05 27.6 95.78 27.27C95.51 26.94 95.31 26.55 95.17 26.11C95.04 25.66 94.97 25.19 94.97 24.69C94.97 24.26 95.03 23.82 95.14 23.38C95.25 22.92 95.44 22.51 95.7 22.14C95.96 21.77 96.31 21.46 96.74 21.23C97.17 20.99 97.7 20.87 98.32 20.87C98.78 20.87 99.2 20.97 99.58 21.17C99.97 21.37 100.27 21.67 100.48 22.07H100.5V21.03H101.62V27.67ZM98.28 27.32C98.67 27.32 99 27.24 99.28 27.08C99.56 26.91 99.78 26.69 99.95 26.43C100.12 26.16 100.24 25.86 100.31 25.52C100.4 25.18 100.44 24.85 100.44 24.51C100.44 24.19 100.4 23.88 100.33 23.57C100.25 23.26 100.13 22.99 99.96 22.74C99.8 22.49 99.59 22.29 99.33 22.14C99.07 21.99 98.75 21.92 98.38 21.92C97.99 21.92 97.67 21.99 97.4 22.14C97.13 22.28 96.9 22.47 96.72 22.72C96.55 22.96 96.43 23.24 96.34 23.56C96.27 23.88 96.23 24.21 96.23 24.55C96.23 24.88 96.27 25.21 96.33 25.54C96.4 25.86 96.51 26.16 96.67 26.43C96.83 26.69 97.04 26.91 97.3 27.08C97.56 27.24 97.89 27.32 98.28 27.32ZM109.84 28.26C109.63 28.38 109.35 28.44 108.98 28.44C108.68 28.44 108.43 28.35 108.24 28.19C108.06 28.01 107.97 27.72 107.97 27.33C107.65 27.72 107.26 28.01 106.82 28.19C106.39 28.35 105.93 28.44 105.42 28.44C105.09 28.44 104.78 28.4 104.48 28.33C104.19 28.25 103.94 28.13 103.72 27.98C103.51 27.82 103.34 27.61 103.21 27.36C103.08 27.1 103.02 26.78 103.02 26.42C103.02 26.01 103.09 25.67 103.23 25.41C103.37 25.15 103.56 24.94 103.78 24.78C104.02 24.61 104.28 24.48 104.57 24.4C104.86 24.32 105.17 24.25 105.48 24.19C105.81 24.12 106.11 24.08 106.4 24.05C106.7 24.01 106.97 23.96 107.19 23.91C107.41 23.84 107.59 23.75 107.72 23.64C107.85 23.52 107.92 23.35 107.92 23.12C107.92 22.86 107.87 22.65 107.76 22.49C107.67 22.33 107.54 22.21 107.39 22.13C107.24 22.04 107.06 21.99 106.87 21.96C106.68 21.93 106.49 21.92 106.31 21.92C105.8 21.92 105.38 22.02 105.04 22.21C104.71 22.4 104.52 22.76 104.5 23.29H103.3C103.32 22.84 103.42 22.46 103.58 22.16C103.75 21.85 103.98 21.6 104.26 21.41C104.54 21.22 104.86 21.08 105.21 20.99C105.58 20.91 105.96 20.87 106.38 20.87C106.7 20.87 107.03 20.89 107.34 20.94C107.67 20.98 107.97 21.08 108.23 21.23C108.49 21.37 108.7 21.57 108.86 21.83C109.02 22.09 109.1 22.44 109.1 22.86V26.59C109.1 26.87 109.11 27.07 109.14 27.2C109.18 27.34 109.29 27.4 109.47 27.4C109.58 27.4 109.7 27.38 109.84 27.33V28.26ZM107.9 24.54C107.75 24.65 107.56 24.74 107.31 24.79C107.07 24.84 106.81 24.88 106.54 24.92C106.28 24.95 106.02 24.98 105.74 25.03C105.47 25.07 105.23 25.13 105.02 25.23C104.8 25.32 104.62 25.46 104.48 25.63C104.35 25.8 104.29 26.04 104.29 26.34C104.29 26.53 104.32 26.7 104.4 26.84C104.48 26.97 104.58 27.08 104.71 27.16C104.84 27.25 104.99 27.31 105.16 27.34C105.32 27.38 105.5 27.4 105.69 27.4C106.08 27.4 106.42 27.35 106.7 27.25C106.98 27.13 107.21 27 107.39 26.84C107.56 26.67 107.69 26.49 107.78 26.31C107.86 26.11 107.9 25.93 107.9 25.76V24.54ZM110.95 21.03H112.07V22.18H112.1C112.59 21.3 113.38 20.87 114.45 20.87C114.93 20.87 115.33 20.93 115.65 21.06C115.97 21.19 116.22 21.37 116.42 21.61C116.61 21.84 116.75 22.12 116.83 22.45C116.91 22.77 116.95 23.12 116.95 23.52V28.28H115.76V23.38C115.76 22.93 115.63 22.57 115.37 22.31C115.11 22.05 114.75 21.92 114.29 21.92C113.92 21.92 113.61 21.97 113.33 22.09C113.07 22.2 112.85 22.36 112.67 22.56C112.5 22.77 112.36 23.01 112.27 23.29C112.18 23.56 112.14 23.86 112.14 24.19V28.28H110.95V21.03ZM125.17 28.26C124.96 28.38 124.67 28.44 124.31 28.44C124 28.44 123.75 28.35 123.57 28.19C123.39 28.01 123.3 27.72 123.3 27.33C122.97 27.72 122.59 28.01 122.15 28.19C121.72 28.35 121.25 28.44 120.75 28.44C120.42 28.44 120.11 28.4 119.81 28.33C119.52 28.25 119.27 28.13 119.05 27.98C118.84 27.82 118.66 27.61 118.53 27.36C118.41 27.1 118.35 26.78 118.35 26.42C118.35 26.01 118.42 25.67 118.56 25.41C118.7 25.15 118.88 24.94 119.11 24.78C119.34 24.61 119.6 24.48 119.89 24.4C120.19 24.32 120.5 24.25 120.8 24.19C121.13 24.12 121.44 24.08 121.73 24.05C122.03 24.01 122.29 23.96 122.52 23.91C122.74 23.84 122.92 23.75 123.05 23.64C123.18 23.52 123.24 23.35 123.24 23.12C123.24 22.86 123.19 22.65 123.09 22.49C123 22.33 122.87 22.21 122.71 22.13C122.56 22.04 122.39 21.99 122.19 21.96C122 21.93 121.82 21.92 121.63 21.92C121.13 21.92 120.71 22.02 120.37 22.21C120.03 22.4 119.85 22.76 119.82 23.29H118.63C118.65 22.84 118.74 22.46 118.91 22.16C119.08 21.85 119.3 21.6 119.58 21.41C119.86 21.22 120.18 21.08 120.54 20.99C120.9 20.91 121.29 20.87 121.7 20.87C122.03 20.87 122.35 20.89 122.67 20.94C123 20.98 123.29 21.08 123.55 21.23C123.81 21.37 124.03 21.57 124.18 21.83C124.34 22.09 124.42 22.44 124.42 22.86V26.59C124.42 26.87 124.44 27.07 124.47 27.2C124.5 27.34 124.61 27.4 124.8 27.4C124.9 27.4 125.03 27.38 125.17 27.33V28.26ZM123.23 24.54C123.08 24.65 122.88 24.74 122.64 24.79C122.4 24.84 122.14 24.88 121.87 24.92C121.61 24.95 121.34 24.98 121.07 25.03C120.8 25.07 120.56 25.13 120.34 25.23C120.13 25.32 119.95 25.46 119.81 25.63C119.68 25.8 119.61 26.04 119.61 26.34C119.61 26.53 119.65 26.7 119.72 26.84C119.81 26.97 119.91 27.08 120.03 27.16C120.16 27.25 120.31 27.31 120.48 27.34C120.65 27.38 120.83 27.4 121.01 27.4C121.41 27.4 121.74 27.35 122.02 27.25C122.31 27.13 122.53 27 122.71 26.84C122.89 26.67 123.02 26.49 123.1 26.31C123.19 26.11 123.23 25.93 123.23 25.76V24.54ZM127 26C127.01 26.26 127.08 26.48 127.19 26.67C127.3 26.85 127.44 26.99 127.62 27.11C127.81 27.21 128.01 27.28 128.24 27.33C128.47 27.38 128.71 27.4 128.95 27.4C129.14 27.4 129.34 27.39 129.54 27.36C129.75 27.33 129.94 27.28 130.1 27.2C130.28 27.13 130.43 27.02 130.54 26.88C130.65 26.73 130.71 26.55 130.71 26.32C130.71 26.01 130.59 25.78 130.36 25.62C130.12 25.46 129.83 25.33 129.47 25.24C129.13 25.14 128.75 25.05 128.34 24.97C127.93 24.89 127.54 24.78 127.19 24.64C126.84 24.49 126.55 24.28 126.32 24.02C126.08 23.76 125.97 23.39 125.97 22.93C125.97 22.56 126.05 22.25 126.2 21.99C126.37 21.73 126.58 21.52 126.84 21.36C127.1 21.19 127.39 21.07 127.71 20.99C128.03 20.91 128.36 20.87 128.67 20.87C129.09 20.87 129.46 20.9 129.81 20.98C130.16 21.04 130.46 21.16 130.72 21.34C130.99 21.51 131.21 21.74 131.37 22.04C131.53 22.33 131.62 22.7 131.65 23.14H130.46C130.44 22.9 130.38 22.71 130.27 22.56C130.17 22.4 130.04 22.28 129.88 22.18C129.72 22.09 129.54 22.02 129.35 21.99C129.16 21.94 128.97 21.92 128.77 21.92C128.59 21.92 128.41 21.93 128.22 21.96C128.05 21.99 127.88 22.04 127.73 22.11C127.58 22.18 127.46 22.27 127.37 22.39C127.28 22.51 127.23 22.66 127.23 22.84C127.23 23.05 127.3 23.22 127.44 23.36C127.59 23.49 127.78 23.6 128 23.7C128.22 23.78 128.48 23.86 128.76 23.92C129.04 23.98 129.32 24.04 129.6 24.11C129.9 24.17 130.19 24.25 130.47 24.34C130.76 24.44 131.01 24.56 131.23 24.72C131.45 24.87 131.63 25.06 131.76 25.3C131.9 25.53 131.97 25.82 131.97 26.17C131.97 26.61 131.88 26.97 131.69 27.26C131.51 27.55 131.27 27.78 130.97 27.96C130.68 28.14 130.35 28.26 129.98 28.33C129.61 28.4 129.25 28.44 128.88 28.44C128.48 28.44 128.1 28.4 127.73 28.31C127.37 28.23 127.05 28.09 126.77 27.91C126.49 27.71 126.26 27.46 126.09 27.15C125.92 26.83 125.83 26.45 125.81 26H127ZM134.55 19.73H133.36V18.27H134.55V19.73ZM133.36 21.03H134.55V28.28H133.36V21.03ZM135.81 27.37L140.18 22.09H136.09V21.03H141.73V21.85L137.29 27.23H141.92V28.28H135.81V27.37ZM147.97 23.82H158.34V24.95H147.97V23.82ZM167.81 29.25C167.67 29.61 167.53 29.91 167.39 30.15C167.26 30.39 167.11 30.59 166.94 30.74C166.79 30.9 166.6 31.01 166.4 31.08C166.2 31.15 165.97 31.19 165.71 31.19C165.57 31.19 165.43 31.18 165.29 31.16C165.15 31.14 165.01 31.11 164.88 31.06V29.97C164.99 30.01 165.1 30.05 165.23 30.08C165.37 30.12 165.49 30.14 165.58 30.14C165.83 30.14 166.03 30.07 166.19 29.95C166.36 29.84 166.48 29.68 166.57 29.46L167.06 28.24L164.18 21.03H165.53L167.65 26.97H167.67L169.71 21.03H170.97L167.81 29.25ZM173.24 19.73H172.05V18.27H173.24V19.73ZM172.05 21.03H173.24V28.28H172.05V21.03ZM175.16 18.27H176.35V28.28H175.16V18.27ZM178.27 18.27H179.46V28.28H178.27V18.27ZM187.73 28.26C187.53 28.38 187.24 28.44 186.88 28.44C186.57 28.44 186.32 28.35 186.13 28.19C185.95 28.01 185.87 27.72 185.87 27.33C185.54 27.72 185.16 28.01 184.72 28.19C184.28 28.35 183.82 28.44 183.31 28.44C182.99 28.44 182.67 28.4 182.37 28.33C182.08 28.25 181.83 28.13 181.62 27.98C181.4 27.82 181.23 27.61 181.1 27.36C180.97 27.1 180.91 26.78 180.91 26.42C180.91 26.01 180.98 25.67 181.12 25.41C181.26 25.15 181.45 24.94 181.67 24.78C181.91 24.61 182.17 24.48 182.46 24.4C182.76 24.32 183.06 24.25 183.37 24.19C183.7 24.12 184 24.08 184.29 24.05C184.59 24.01 184.85 23.96 185.08 23.91C185.3 23.84 185.48 23.75 185.61 23.64C185.74 23.52 185.81 23.35 185.81 23.12C185.81 22.86 185.76 22.65 185.66 22.49C185.56 22.33 185.44 22.21 185.28 22.13C185.13 22.04 184.95 21.99 184.76 21.96C184.57 21.93 184.38 21.92 184.2 21.92C183.69 21.92 183.27 22.02 182.93 22.21C182.6 22.4 182.41 22.76 182.39 23.29H181.19C181.21 22.84 181.31 22.46 181.47 22.16C181.64 21.85 181.87 21.6 182.15 21.41C182.43 21.22 182.75 21.08 183.1 20.99C183.47 20.91 183.85 20.87 184.27 20.87C184.59 20.87 184.92 20.89 185.23 20.94C185.56 20.98 185.86 21.08 186.12 21.23C186.38 21.37 186.59 21.57 186.75 21.83C186.91 22.09 186.99 22.44 186.99 22.86V26.59C186.99 26.87 187 27.07 187.03 27.2C187.07 27.34 187.18 27.4 187.37 27.4C187.47 27.4 187.59 27.38 187.73 27.33V28.26ZM185.79 24.54C185.65 24.65 185.45 24.74 185.21 24.79C184.96 24.84 184.71 24.88 184.44 24.92C184.17 24.95 183.91 24.98 183.63 25.03C183.36 25.07 183.12 25.13 182.91 25.23C182.69 25.32 182.51 25.46 182.37 25.63C182.24 25.8 182.18 26.04 182.18 26.34C182.18 26.53 182.21 26.7 182.29 26.84C182.37 26.97 182.48 27.08 182.6 27.16C182.73 27.25 182.88 27.31 183.05 27.34C183.21 27.38 183.39 27.4 183.58 27.4C183.97 27.4 184.31 27.35 184.59 27.25C184.87 27.13 185.1 27 185.28 26.84C185.45 26.67 185.59 26.49 185.67 26.31C185.75 26.11 185.79 25.93 185.79 25.76V24.54ZM188.88 18.27H190.07V22.02H190.1C190.3 21.61 190.61 21.32 191.03 21.15C191.45 20.96 191.91 20.87 192.42 20.87C192.98 20.87 193.46 20.97 193.88 21.17C194.3 21.38 194.64 21.66 194.91 22.02C195.19 22.36 195.4 22.76 195.54 23.22C195.68 23.68 195.75 24.17 195.75 24.68C195.75 25.19 195.68 25.68 195.54 26.14C195.41 26.6 195.21 27 194.93 27.34C194.66 27.68 194.31 27.95 193.89 28.14C193.48 28.34 193 28.44 192.44 28.44C192.27 28.44 192.07 28.42 191.84 28.38C191.63 28.35 191.41 28.28 191.2 28.2C190.98 28.12 190.78 28 190.58 27.86C190.39 27.71 190.23 27.53 190.1 27.32H190.07V28.28H188.88V18.27ZM194.49 24.6C194.49 24.26 194.44 23.93 194.35 23.61C194.27 23.29 194.13 23 193.94 22.74C193.77 22.49 193.53 22.29 193.24 22.14C192.96 21.99 192.63 21.92 192.25 21.92C191.85 21.92 191.5 22 191.22 22.16C190.94 22.31 190.72 22.52 190.54 22.79C190.36 23.04 190.23 23.33 190.14 23.66C190.07 23.98 190.03 24.32 190.03 24.65C190.03 25.01 190.07 25.35 190.16 25.69C190.24 26.02 190.37 26.31 190.55 26.56C190.74 26.81 190.98 27.02 191.27 27.18C191.56 27.33 191.91 27.4 192.32 27.4C192.73 27.4 193.07 27.32 193.34 27.16C193.62 27 193.85 26.79 194.01 26.53C194.18 26.27 194.31 25.97 194.38 25.63C194.46 25.3 194.49 24.95 194.49 24.6ZM201.93 24.72C201.93 25.06 201.97 25.39 202.05 25.72C202.15 26.04 202.28 26.32 202.46 26.57C202.65 26.83 202.88 27.03 203.16 27.18C203.45 27.33 203.79 27.4 204.17 27.4C204.57 27.4 204.91 27.32 205.19 27.16C205.47 27 205.7 26.8 205.88 26.55C206.06 26.28 206.19 25.99 206.26 25.66C206.34 25.33 206.39 25 206.39 24.67C206.39 24.31 206.34 23.97 206.26 23.64C206.18 23.31 206.04 23.01 205.85 22.76C205.68 22.51 205.44 22.31 205.15 22.16C204.86 22 204.51 21.92 204.1 21.92C203.7 21.92 203.36 22 203.08 22.16C202.8 22.31 202.57 22.52 202.4 22.79C202.24 23.05 202.11 23.35 202.04 23.68C201.96 24.02 201.93 24.37 201.93 24.72ZM207.54 28.28H206.34V27.3H206.32C206.12 27.7 205.81 27.99 205.39 28.17C204.97 28.35 204.51 28.44 204 28.44C203.44 28.44 202.95 28.34 202.53 28.13C202.12 27.92 201.77 27.65 201.49 27.3C201.22 26.96 201.01 26.55 200.88 26.1C200.73 25.64 200.66 25.15 200.66 24.64C200.66 24.12 200.73 23.64 200.86 23.18C201 22.72 201.21 22.32 201.48 21.99C201.76 21.64 202.1 21.37 202.52 21.17C202.94 20.97 203.42 20.87 203.97 20.87C204.16 20.87 204.36 20.88 204.58 20.92C204.79 20.96 205.01 21.02 205.22 21.12C205.44 21.2 205.64 21.32 205.83 21.47C206.02 21.61 206.19 21.79 206.32 22H206.34V18.27H207.54V28.28ZM215.79 28.26C215.59 28.38 215.3 28.44 214.94 28.44C214.63 28.44 214.38 28.35 214.19 28.19C214.02 28.01 213.93 27.72 213.93 27.33C213.6 27.72 213.22 28.01 212.78 28.19C212.35 28.35 211.88 28.44 211.38 28.44C211.05 28.44 210.74 28.4 210.44 28.33C210.15 28.25 209.89 28.13 209.68 27.98C209.46 27.82 209.29 27.61 209.16 27.36C209.04 27.1 208.98 26.78 208.98 26.42C208.98 26.01 209.05 25.67 209.19 25.41C209.33 25.15 209.51 24.94 209.74 24.78C209.97 24.61 210.23 24.48 210.52 24.4C210.82 24.32 211.12 24.25 211.43 24.19C211.76 24.12 212.07 24.08 212.36 24.05C212.66 24.01 212.92 23.96 213.14 23.91C213.37 23.84 213.54 23.75 213.68 23.64C213.81 23.52 213.87 23.35 213.87 23.12C213.87 22.86 213.82 22.65 213.72 22.49C213.62 22.33 213.5 22.21 213.34 22.13C213.19 22.04 213.02 21.99 212.82 21.96C212.63 21.93 212.45 21.92 212.26 21.92C211.75 21.92 211.33 22.02 211 22.21C210.66 22.4 210.48 22.76 210.45 23.29H209.26C209.28 22.84 209.37 22.46 209.54 22.16C209.71 21.85 209.93 21.6 210.21 21.41C210.49 21.22 210.81 21.08 211.17 20.99C211.53 20.91 211.92 20.87 212.33 20.87C212.66 20.87 212.98 20.89 213.3 20.94C213.62 20.98 213.92 21.08 214.18 21.23C214.44 21.37 214.65 21.57 214.81 21.83C214.97 22.09 215.05 22.44 215.05 22.86V26.59C215.05 26.87 215.06 27.07 215.09 27.2C215.13 27.34 215.24 27.4 215.43 27.4C215.53 27.4 215.65 27.38 215.79 27.33V28.26ZM213.86 24.54C213.71 24.65 213.51 24.74 213.27 24.79C213.03 24.84 212.77 24.88 212.5 24.92C212.24 24.95 211.97 24.98 211.7 25.03C211.43 25.07 211.19 25.13 210.97 25.23C210.75 25.32 210.58 25.46 210.44 25.63C210.31 25.8 210.24 26.04 210.24 26.34C210.24 26.53 210.28 26.7 210.35 26.84C210.44 26.97 210.54 27.08 210.66 27.16C210.79 27.25 210.94 27.31 211.11 27.34C211.28 27.38 211.46 27.4 211.64 27.4C212.03 27.4 212.37 27.35 212.65 27.25C212.93 27.13 213.16 27 213.34 26.84C213.52 26.67 213.65 26.49 213.73 26.31C213.82 26.11 213.86 25.93 213.86 25.76V24.54ZM217.63 26C217.64 26.26 217.7 26.48 217.81 26.67C217.93 26.85 218.07 26.99 218.25 27.11C218.44 27.21 218.64 27.28 218.87 27.33C219.1 27.38 219.34 27.4 219.58 27.4C219.77 27.4 219.97 27.39 220.17 27.36C220.38 27.33 220.56 27.28 220.73 27.2C220.91 27.13 221.06 27.02 221.17 26.88C221.28 26.73 221.34 26.55 221.34 26.32C221.34 26.01 221.22 25.78 220.99 25.62C220.75 25.46 220.46 25.33 220.1 25.24C219.75 25.14 219.38 25.05 218.97 24.97C218.55 24.89 218.17 24.78 217.81 24.64C217.47 24.49 217.18 24.28 216.95 24.02C216.71 23.76 216.59 23.39 216.59 22.93C216.59 22.56 216.68 22.25 216.83 21.99C217 21.73 217.21 21.52 217.47 21.36C217.73 21.19 218.02 21.07 218.33 20.99C218.66 20.91 218.98 20.87 219.3 20.87C219.71 20.87 220.09 20.9 220.44 20.98C220.78 21.04 221.09 21.16 221.35 21.34C221.62 21.51 221.84 21.74 222 22.04C222.15 22.33 222.25 22.7 222.28 23.14H221.08C221.06 22.9 221 22.71 220.9 22.56C220.8 22.4 220.67 22.28 220.51 22.18C220.35 22.09 220.17 22.02 219.97 21.99C219.79 21.94 219.6 21.92 219.4 21.92C219.22 21.92 219.04 21.93 218.85 21.96C218.68 21.99 218.51 22.04 218.36 22.11C218.21 22.18 218.09 22.27 218 22.39C217.9 22.51 217.86 22.66 217.86 22.84C217.86 23.05 217.93 23.22 218.07 23.36C218.22 23.49 218.4 23.6 218.63 23.7C218.85 23.78 219.11 23.86 219.39 23.92C219.67 23.98 219.95 24.04 220.23 24.11C220.53 24.17 220.82 24.25 221.1 24.34C221.39 24.44 221.64 24.56 221.85 24.72C222.08 24.87 222.26 25.06 222.39 25.3C222.53 25.53 222.6 25.82 222.6 26.17C222.6 26.61 222.5 26.97 222.32 27.26C222.14 27.55 221.9 27.78 221.6 27.96C221.31 28.14 220.98 28.26 220.61 28.33C220.24 28.4 219.88 28.44 219.51 28.44C219.11 28.44 218.73 28.4 218.36 28.31C218 28.23 217.68 28.09 217.4 27.91C217.11 27.71 216.89 27.46 216.72 27.15C216.55 26.83 216.46 26.45 216.44 26H217.63ZM225.57 21.03H227.02V22.09H225.57V26.59C225.57 26.73 225.58 26.84 225.6 26.92C225.63 27.01 225.67 27.07 225.74 27.12C225.81 27.17 225.89 27.2 226.01 27.22C226.13 27.23 226.28 27.23 226.47 27.23H227.02V28.28H226.1C225.8 28.28 225.53 28.27 225.31 28.23C225.09 28.18 224.91 28.1 224.77 27.99C224.64 27.88 224.54 27.72 224.48 27.51C224.41 27.31 224.38 27.04 224.38 26.7V22.09H223.15V21.03H224.38V18.86H225.57V21.03ZM234.34 28.28H233.22V27.13H233.19C232.94 27.58 232.62 27.92 232.22 28.13C231.83 28.34 231.37 28.44 230.84 28.44C230.36 28.44 229.96 28.38 229.64 28.26C229.33 28.13 229.07 27.94 228.87 27.71C228.68 27.48 228.54 27.2 228.45 26.88C228.38 26.55 228.34 26.19 228.34 25.8V21.03H229.53V25.94C229.53 26.39 229.66 26.75 229.93 27.01C230.19 27.27 230.55 27.4 231 27.4C231.37 27.4 231.68 27.34 231.94 27.23C232.22 27.12 232.44 26.96 232.62 26.76C232.79 26.55 232.93 26.31 233.01 26.04C233.1 25.76 233.15 25.46 233.15 25.13V21.03H234.34V28.28ZM236.09 21.03H237.21V22.56H237.24C237.53 21.97 237.89 21.54 238.31 21.26C238.73 20.98 239.26 20.85 239.91 20.87V22.13C239.43 22.13 239.02 22.19 238.69 22.32C238.35 22.45 238.08 22.65 237.87 22.9C237.67 23.15 237.52 23.46 237.42 23.82C237.33 24.18 237.28 24.59 237.28 25.06V28.28H236.09V21.03ZM240.87 18.27H242.07V28.28H240.87V18.27ZM250.34 28.26C250.13 28.38 249.84 28.44 249.48 28.44C249.17 28.44 248.92 28.35 248.74 28.19C248.56 28.01 248.47 27.72 248.47 27.33C248.14 27.72 247.76 28.01 247.32 28.19C246.89 28.35 246.42 28.44 245.92 28.44C245.59 28.44 245.28 28.4 244.98 28.33C244.69 28.25 244.44 28.13 244.22 27.98C244.01 27.82 243.83 27.61 243.7 27.36C243.58 27.1 243.52 26.78 243.52 26.42C243.52 26.01 243.59 25.67 243.73 25.41C243.87 25.15 244.05 24.94 244.28 24.78C244.51 24.61 244.77 24.48 245.06 24.4C245.36 24.32 245.67 24.25 245.97 24.19C246.3 24.12 246.61 24.08 246.9 24.05C247.2 24.01 247.46 23.96 247.69 23.91C247.91 23.84 248.09 23.75 248.22 23.64C248.35 23.52 248.41 23.35 248.41 23.12C248.41 22.86 248.36 22.65 248.26 22.49C248.17 22.33 248.04 22.21 247.88 22.13C247.73 22.04 247.56 21.99 247.36 21.96C247.18 21.93 246.99 21.92 246.8 21.92C246.3 21.92 245.88 22.02 245.54 22.21C245.2 22.4 245.02 22.76 244.99 23.29H243.8C243.82 22.84 243.91 22.46 244.08 22.16C244.25 21.85 244.47 21.6 244.75 21.41C245.03 21.22 245.35 21.08 245.71 20.99C246.07 20.91 246.46 20.87 246.87 20.87C247.2 20.87 247.52 20.89 247.84 20.94C248.17 20.98 248.46 21.08 248.72 21.23C248.99 21.37 249.2 21.57 249.35 21.83C249.51 22.09 249.59 22.44 249.59 22.86V26.59C249.59 26.87 249.61 27.07 249.63 27.2C249.67 27.34 249.78 27.4 249.97 27.4C250.07 27.4 250.2 27.38 250.34 27.33V28.26ZM248.4 24.54C248.25 24.65 248.06 24.74 247.81 24.79C247.57 24.84 247.31 24.88 247.04 24.92C246.78 24.95 246.51 24.98 246.24 25.03C245.97 25.07 245.73 25.13 245.51 25.23C245.3 25.32 245.12 25.46 244.98 25.63C244.85 25.8 244.78 26.04 244.78 26.34C244.78 26.53 244.82 26.7 244.9 26.84C244.98 26.97 245.08 27.08 245.2 27.16C245.33 27.25 245.48 27.31 245.65 27.34C245.82 27.38 246 27.4 246.19 27.4C246.58 27.4 246.91 27.35 247.19 27.25C247.47 27.13 247.7 27 247.88 26.84C248.06 26.67 248.19 26.49 248.28 26.31C248.36 26.11 248.4 25.93 248.4 25.76V24.54ZM252.18 26C252.18 26.26 252.25 26.48 252.36 26.67C252.47 26.85 252.61 26.99 252.79 27.11C252.98 27.21 253.19 27.28 253.41 27.33C253.64 27.38 253.88 27.4 254.12 27.4C254.31 27.4 254.51 27.39 254.71 27.36C254.92 27.33 255.11 27.28 255.28 27.2C255.45 27.13 255.6 27.02 255.71 26.88C255.82 26.73 255.88 26.55 255.88 26.32C255.88 26.01 255.76 25.78 255.53 25.62C255.29 25.46 255 25.33 254.64 25.24C254.3 25.14 253.92 25.05 253.51 24.97C253.1 24.89 252.71 24.78 252.36 24.64C252.01 24.49 251.72 24.28 251.49 24.02C251.25 23.76 251.14 23.39 251.14 22.93C251.14 22.56 251.22 22.25 251.38 21.99C251.54 21.73 251.75 21.52 252.01 21.36C252.27 21.19 252.56 21.07 252.88 20.99C253.2 20.91 253.53 20.87 253.84 20.87C254.25 20.87 254.63 20.9 254.98 20.98C255.33 21.04 255.63 21.16 255.89 21.34C256.16 21.51 256.38 21.74 256.54 22.04C256.7 22.33 256.79 22.7 256.82 23.14H255.62C255.61 22.9 255.55 22.71 255.44 22.56C255.34 22.4 255.21 22.28 255.05 22.18C254.89 22.09 254.71 22.02 254.52 21.99C254.33 21.94 254.14 21.92 253.94 21.92C253.76 21.92 253.58 21.93 253.4 21.96C253.22 21.99 253.05 22.04 252.9 22.11C252.75 22.18 252.63 22.27 252.54 22.39C252.45 22.51 252.4 22.66 252.4 22.84C252.4 23.05 252.47 23.22 252.61 23.36C252.76 23.49 252.95 23.6 253.17 23.7C253.4 23.78 253.65 23.86 253.93 23.92C254.21 23.98 254.49 24.04 254.77 24.11C255.07 24.17 255.36 24.25 255.64 24.34C255.93 24.44 256.18 24.56 256.4 24.72C256.62 24.87 256.8 25.06 256.93 25.3C257.07 25.53 257.14 25.82 257.14 26.17C257.14 26.61 257.05 26.97 256.86 27.26C256.68 27.55 256.44 27.78 256.14 27.96C255.85 28.14 255.52 28.26 255.15 28.33C254.78 28.4 254.42 28.44 254.05 28.44C253.65 28.44 253.27 28.4 252.9 28.31C252.54 28.23 252.22 28.09 251.94 27.91C251.66 27.71 251.43 27.46 251.26 27.15C251.09 26.83 251 26.45 250.98 26H252.18ZM258.46 18.27H259.65V22.1H259.68C259.77 21.88 259.9 21.69 260.07 21.54C260.24 21.38 260.43 21.25 260.63 21.16C260.85 21.06 261.07 20.98 261.29 20.94C261.52 20.89 261.75 20.87 261.96 20.87C262.44 20.87 262.84 20.93 263.16 21.06C263.48 21.19 263.73 21.37 263.93 21.61C264.12 21.84 264.26 22.12 264.33 22.45C264.42 22.77 264.46 23.12 264.46 23.52V28.28H263.27V23.38C263.27 22.93 263.14 22.57 262.88 22.31C262.61 22.05 262.25 21.92 261.8 21.92C261.43 21.92 261.11 21.97 260.84 22.09C260.58 22.2 260.36 22.36 260.18 22.56C260.01 22.77 259.87 23.01 259.78 23.29C259.69 23.56 259.65 23.86 259.65 24.19V28.28H258.46V18.27ZM1.26 42.7C1.26 43.14 1.32 43.53 1.43 43.88C1.55 44.21 1.72 44.5 1.92 44.73C2.13 44.96 2.37 45.13 2.64 45.25C2.92 45.37 3.21 45.43 3.52 45.43C3.83 45.43 4.12 45.37 4.39 45.25C4.67 45.13 4.91 44.96 5.12 44.73C5.32 44.5 5.48 44.21 5.6 43.88C5.72 43.53 5.78 43.14 5.78 42.7C5.78 42.26 5.72 41.87 5.6 41.53C5.48 41.19 5.32 40.9 5.12 40.66C4.91 40.43 4.67 40.25 4.39 40.13C4.12 40.01 3.83 39.95 3.52 39.95C3.21 39.95 2.92 40.01 2.64 40.13C2.37 40.25 2.13 40.43 1.92 40.66C1.72 40.9 1.55 41.19 1.43 41.53C1.32 41.87 1.26 42.26 1.26 42.7ZM-2.83e-05 42.7C-2.83e-05 42.17 0.07 41.67 0.22 41.21C0.37 40.74 0.6 40.34 0.9 40.01C1.2 39.66 1.57 39.39 2.01 39.19C2.44 39 2.95 38.9 3.52 38.9C4.1 38.9 4.6 39 5.03 39.19C5.47 39.39 5.84 39.66 6.14 40.01C6.44 40.34 6.67 40.74 6.82 41.21C6.97 41.67 7.04 42.17 7.04 42.7C7.04 43.23 6.97 43.73 6.82 44.18C6.67 44.64 6.44 45.05 6.14 45.39C5.84 45.73 5.47 45.99 5.03 46.19C4.6 46.38 4.1 46.47 3.52 46.47C2.95 46.47 2.44 46.38 2.01 46.19C1.57 45.99 1.2 45.73 0.9 45.39C0.6 45.05 0.37 44.64 0.22 44.18C0.07 43.73 -2.83e-05 43.23 -2.83e-05 42.7ZM9.02 36.3H9.97V39.92H9.02V36.3ZM12.31 39.07H13.43V40.59H13.46C13.75 40.01 14.1 39.57 14.52 39.29C14.94 39.01 15.48 38.88 16.12 38.9V40.16C15.65 40.16 15.24 40.23 14.9 40.36C14.57 40.49 14.29 40.68 14.09 40.93C13.88 41.18 13.73 41.49 13.64 41.86C13.55 42.21 13.5 42.62 13.5 43.09V46.32H12.31V39.07ZM22.88 45.7C22.88 46.89 22.61 47.78 22.06 48.36C21.52 48.95 20.67 49.25 19.51 49.25C19.18 49.25 18.83 49.21 18.47 49.14C18.13 49.06 17.81 48.94 17.52 48.77C17.24 48.6 17.01 48.38 16.82 48.11C16.63 47.84 16.53 47.51 16.51 47.12H17.7C17.71 47.33 17.78 47.51 17.9 47.66C18.03 47.81 18.18 47.93 18.36 48.03C18.55 48.12 18.75 48.19 18.96 48.22C19.18 48.27 19.39 48.29 19.58 48.29C19.97 48.29 20.31 48.22 20.58 48.08C20.85 47.95 21.07 47.77 21.25 47.52C21.43 47.29 21.55 47 21.63 46.67C21.71 46.33 21.76 45.96 21.76 45.56V45.08H21.73C21.52 45.53 21.21 45.86 20.79 46.08C20.38 46.28 19.94 46.39 19.47 46.39C18.93 46.39 18.46 46.29 18.05 46.09C17.65 45.9 17.31 45.63 17.04 45.31C16.77 44.97 16.57 44.58 16.43 44.14C16.3 43.69 16.23 43.22 16.23 42.73C16.23 42.3 16.29 41.86 16.4 41.41C16.51 40.95 16.7 40.54 16.96 40.17C17.22 39.8 17.57 39.5 18 39.26C18.43 39.02 18.96 38.9 19.58 38.9C20.04 38.9 20.46 39 20.84 39.21C21.23 39.4 21.53 39.7 21.74 40.1H21.76V39.07H22.88V45.7ZM19.54 45.35C19.93 45.35 20.26 45.27 20.54 45.11C20.82 44.94 21.04 44.73 21.21 44.47C21.38 44.19 21.5 43.89 21.57 43.55C21.66 43.22 21.7 42.88 21.7 42.54C21.7 42.23 21.66 41.91 21.59 41.6C21.51 41.3 21.39 41.02 21.22 40.78C21.06 40.52 20.85 40.32 20.59 40.17C20.33 40.02 20.01 39.95 19.64 39.95C19.25 39.95 18.93 40.02 18.66 40.17C18.39 40.31 18.16 40.51 17.98 40.75C17.81 40.99 17.69 41.27 17.6 41.59C17.53 41.91 17.49 42.24 17.49 42.59C17.49 42.91 17.53 43.24 17.59 43.57C17.66 43.89 17.77 44.19 17.93 44.47C18.09 44.73 18.3 44.94 18.56 45.11C18.82 45.27 19.15 45.35 19.54 45.35ZM31.1 46.29C30.89 46.41 30.61 46.47 30.24 46.47C29.94 46.47 29.69 46.39 29.5 46.22C29.32 46.04 29.23 45.76 29.23 45.36C28.91 45.76 28.52 46.04 28.08 46.22C27.65 46.39 27.19 46.47 26.68 46.47C26.35 46.47 26.04 46.43 25.74 46.36C25.45 46.28 25.2 46.17 24.98 46.01C24.77 45.85 24.6 45.64 24.47 45.39C24.34 45.13 24.28 44.82 24.28 44.45C24.28 44.04 24.35 43.7 24.49 43.44C24.63 43.18 24.82 42.97 25.04 42.81C25.27 42.64 25.54 42.52 25.83 42.43C26.13 42.35 26.43 42.28 26.74 42.22C27.07 42.16 27.37 42.11 27.66 42.08C27.96 42.04 28.22 42 28.45 41.94C28.67 41.88 28.85 41.79 28.98 41.67C29.11 41.55 29.18 41.38 29.18 41.16C29.18 40.89 29.13 40.68 29.02 40.52C28.93 40.37 28.8 40.24 28.65 40.16C28.5 40.08 28.32 40.02 28.13 39.99C27.94 39.96 27.75 39.95 27.57 39.95C27.06 39.95 26.64 40.05 26.3 40.24C25.97 40.43 25.78 40.79 25.76 41.32H24.56C24.58 40.87 24.68 40.5 24.84 40.19C25.01 39.88 25.24 39.63 25.52 39.44C25.8 39.25 26.12 39.11 26.47 39.02C26.84 38.94 27.22 38.9 27.64 38.9C27.96 38.9 28.29 38.92 28.6 38.97C28.93 39.01 29.23 39.11 29.49 39.26C29.75 39.4 29.96 39.6 30.12 39.87C30.28 40.13 30.36 40.47 30.36 40.89V44.62C30.36 44.9 30.37 45.11 30.4 45.24C30.44 45.37 30.55 45.43 30.73 45.43C30.84 45.43 30.96 45.41 31.1 45.36V46.29ZM29.16 42.57C29.01 42.68 28.82 42.77 28.58 42.82C28.33 42.87 28.07 42.91 27.8 42.95C27.54 42.98 27.28 43.02 27 43.06C26.73 43.1 26.49 43.17 26.28 43.26C26.06 43.35 25.88 43.49 25.74 43.67C25.61 43.83 25.55 44.07 25.55 44.37C25.55 44.56 25.58 44.73 25.66 44.87C25.74 45 25.84 45.11 25.97 45.19C26.1 45.28 26.25 45.34 26.42 45.38C26.58 45.41 26.76 45.43 26.95 45.43C27.34 45.43 27.68 45.38 27.96 45.28C28.24 45.17 28.47 45.03 28.65 44.87C28.82 44.7 28.95 44.53 29.04 44.34C29.12 44.14 29.16 43.96 29.16 43.79V42.57ZM32.21 39.07H33.33V40.22H33.36C33.85 39.34 34.64 38.9 35.72 38.9C36.19 38.9 36.59 38.96 36.91 39.09C37.23 39.22 37.48 39.41 37.68 39.64C37.88 39.87 38.01 40.15 38.09 40.48C38.17 40.8 38.21 41.16 38.21 41.55V46.32H37.02V41.41C37.02 40.96 36.89 40.6 36.63 40.34C36.37 40.08 36.01 39.95 35.55 39.95C35.18 39.95 34.86 40.01 34.59 40.12C34.33 40.23 34.11 40.39 33.93 40.59C33.76 40.8 33.62 41.04 33.53 41.32C33.44 41.59 33.4 41.89 33.4 42.22V46.32H32.21V39.07ZM40 39.07H41.12V40.13H41.15C41.69 39.31 42.48 38.9 43.49 38.9C43.94 38.9 44.35 38.99 44.71 39.18C45.08 39.36 45.34 39.68 45.49 40.13C45.73 39.74 46.05 39.44 46.44 39.22C46.84 39 47.28 38.9 47.76 38.9C48.12 38.9 48.45 38.94 48.74 39.02C49.04 39.1 49.29 39.22 49.5 39.39C49.71 39.56 49.88 39.78 49.99 40.05C50.11 40.31 50.17 40.63 50.17 41V46.32H48.98V41.56C48.98 41.34 48.96 41.13 48.92 40.93C48.88 40.73 48.81 40.57 48.71 40.43C48.61 40.28 48.46 40.16 48.28 40.08C48.1 39.99 47.87 39.95 47.58 39.95C46.99 39.95 46.52 40.12 46.19 40.45C45.85 40.79 45.68 41.24 45.68 41.8V46.32H44.49V41.56C44.49 41.33 44.47 41.11 44.42 40.92C44.38 40.72 44.31 40.55 44.21 40.41C44.11 40.26 43.97 40.15 43.79 40.08C43.62 39.99 43.4 39.95 43.13 39.95C42.78 39.95 42.48 40.02 42.23 40.16C41.99 40.3 41.79 40.47 41.63 40.66C41.48 40.86 41.37 41.07 41.29 41.28C41.23 41.49 41.19 41.66 41.19 41.8V46.32H40V39.07ZM58.38 46.29C58.18 46.41 57.89 46.47 57.53 46.47C57.22 46.47 56.97 46.39 56.78 46.22C56.61 46.04 56.52 45.76 56.52 45.36C56.19 45.76 55.81 46.04 55.37 46.22C54.94 46.39 54.47 46.47 53.96 46.47C53.64 46.47 53.32 46.43 53.03 46.36C52.74 46.28 52.48 46.17 52.27 46.01C52.05 45.85 51.88 45.64 51.75 45.39C51.63 45.13 51.57 44.82 51.57 44.45C51.57 44.04 51.64 43.7 51.78 43.44C51.92 43.18 52.1 42.97 52.32 42.81C52.56 42.64 52.82 42.52 53.11 42.43C53.41 42.35 53.71 42.28 54.02 42.22C54.35 42.16 54.66 42.11 54.95 42.08C55.25 42.04 55.51 42 55.73 41.94C55.96 41.88 56.13 41.79 56.26 41.67C56.4 41.55 56.46 41.38 56.46 41.16C56.46 40.89 56.41 40.68 56.31 40.52C56.21 40.37 56.09 40.24 55.93 40.16C55.78 40.08 55.61 40.02 55.41 39.99C55.22 39.96 55.04 39.95 54.85 39.95C54.34 39.95 53.92 40.05 53.59 40.24C53.25 40.43 53.07 40.79 53.04 41.32H51.85C51.87 40.87 51.96 40.5 52.13 40.19C52.3 39.88 52.52 39.63 52.8 39.44C53.08 39.25 53.4 39.11 53.75 39.02C54.12 38.94 54.51 38.9 54.92 38.9C55.25 38.9 55.57 38.92 55.89 38.97C56.21 39.01 56.51 39.11 56.77 39.26C57.03 39.4 57.24 39.6 57.4 39.87C57.56 40.13 57.64 40.47 57.64 40.89V44.62C57.64 44.9 57.65 45.11 57.68 45.24C57.72 45.37 57.83 45.43 58.02 45.43C58.12 45.43 58.24 45.41 58.38 45.36V46.29ZM56.45 42.57C56.3 42.68 56.1 42.77 55.86 42.82C55.62 42.87 55.36 42.91 55.09 42.95C54.83 42.98 54.56 43.02 54.29 43.06C54.02 43.1 53.77 43.17 53.56 43.26C53.34 43.35 53.17 43.49 53.03 43.67C52.89 43.83 52.83 44.07 52.83 44.37C52.83 44.56 52.87 44.73 52.94 44.87C53.03 45 53.13 45.11 53.25 45.19C53.38 45.28 53.53 45.34 53.7 45.38C53.87 45.41 54.04 45.43 54.23 45.43C54.62 45.43 54.96 45.38 55.24 45.28C55.52 45.17 55.75 45.03 55.93 44.87C56.11 44.7 56.24 44.53 56.32 44.34C56.41 44.14 56.45 43.96 56.45 43.79V42.57ZM60.22 44.03C60.23 44.29 60.29 44.52 60.4 44.7C60.52 44.88 60.66 45.03 60.84 45.14C61.03 45.24 61.23 45.32 61.46 45.36C61.69 45.41 61.93 45.43 62.17 45.43C62.36 45.43 62.55 45.42 62.76 45.39C62.97 45.36 63.15 45.31 63.32 45.24C63.5 45.16 63.64 45.05 63.76 44.91C63.87 44.76 63.92 44.58 63.92 44.35C63.92 44.04 63.81 43.81 63.57 43.65C63.34 43.49 63.05 43.37 62.69 43.27C62.34 43.17 61.97 43.08 61.55 43.01C61.14 42.92 60.76 42.81 60.4 42.67C60.06 42.52 59.77 42.31 59.53 42.05C59.3 41.79 59.18 41.43 59.18 40.96C59.18 40.59 59.26 40.28 59.42 40.02C59.59 39.76 59.8 39.55 60.05 39.39C60.31 39.22 60.6 39.1 60.92 39.02C61.25 38.94 61.57 38.9 61.89 38.9C62.3 38.9 62.68 38.93 63.03 39.01C63.37 39.08 63.68 39.2 63.94 39.37C64.21 39.54 64.42 39.78 64.58 40.08C64.74 40.37 64.84 40.73 64.86 41.17H63.67C63.65 40.94 63.59 40.74 63.49 40.59C63.39 40.44 63.26 40.31 63.1 40.22C62.94 40.12 62.76 40.06 62.56 40.02C62.38 39.97 62.19 39.95 61.99 39.95C61.81 39.95 61.63 39.96 61.44 39.99C61.26 40.02 61.1 40.07 60.95 40.15C60.8 40.21 60.68 40.3 60.59 40.43C60.49 40.54 60.45 40.69 60.45 40.87C60.45 41.08 60.52 41.25 60.66 41.39C60.81 41.52 60.99 41.64 61.22 41.73C61.44 41.81 61.69 41.89 61.97 41.95C62.26 42.01 62.54 42.07 62.82 42.14C63.12 42.2 63.41 42.28 63.69 42.38C63.98 42.47 64.23 42.6 64.44 42.75C64.67 42.9 64.85 43.1 64.98 43.33C65.12 43.56 65.19 43.85 65.19 44.2C65.19 44.64 65.09 45 64.91 45.29C64.73 45.58 64.49 45.82 64.19 45.99C63.9 46.17 63.57 46.29 63.19 46.36C62.83 46.43 62.47 46.47 62.1 46.47C61.7 46.47 61.32 46.43 60.95 46.34C60.59 46.26 60.26 46.12 59.98 45.94C59.7 45.74 59.48 45.49 59.31 45.18C59.14 44.86 59.05 44.48 59.03 44.03H60.22ZM67.37 42.75C67.37 43.09 67.42 43.42 67.5 43.75C67.59 44.07 67.73 44.35 67.91 44.61C68.09 44.86 68.33 45.06 68.61 45.21C68.9 45.36 69.23 45.43 69.62 45.43C70.02 45.43 70.36 45.35 70.64 45.19C70.92 45.04 71.15 44.83 71.33 44.58C71.51 44.32 71.63 44.02 71.71 43.69C71.79 43.37 71.83 43.03 71.83 42.7C71.83 42.34 71.79 42 71.71 41.67C71.62 41.34 71.49 41.04 71.3 40.79C71.12 40.54 70.89 40.34 70.6 40.19C70.31 40.03 69.96 39.95 69.55 39.95C69.15 39.95 68.8 40.03 68.52 40.19C68.24 40.35 68.02 40.56 67.85 40.82C67.68 41.08 67.56 41.38 67.49 41.72C67.41 42.05 67.37 42.4 67.37 42.75ZM72.98 46.32H71.79V45.33H71.76C71.57 45.74 71.26 46.03 70.84 46.2C70.42 46.38 69.95 46.47 69.45 46.47C68.89 46.47 68.4 46.37 67.98 46.16C67.57 45.96 67.22 45.68 66.94 45.33C66.67 44.99 66.46 44.59 66.32 44.13C66.18 43.67 66.11 43.18 66.11 42.67C66.11 42.16 66.18 41.67 66.31 41.21C66.45 40.75 66.65 40.36 66.93 40.02C67.21 39.67 67.55 39.4 67.96 39.21C68.38 39 68.87 38.9 69.42 38.9C69.61 38.9 69.81 38.92 70.03 38.95C70.24 38.99 70.46 39.06 70.67 39.15C70.89 39.23 71.09 39.35 71.27 39.5C71.47 39.64 71.63 39.82 71.76 40.03H71.79V36.3H72.98V46.32ZM81.24 46.29C81.04 46.41 80.75 46.47 80.39 46.47C80.08 46.47 79.83 46.39 79.64 46.22C79.47 46.04 79.38 45.76 79.38 45.36C79.05 45.76 78.67 46.04 78.23 46.22C77.8 46.39 77.33 46.47 76.82 46.47C76.5 46.47 76.18 46.43 75.88 46.36C75.59 46.28 75.34 46.17 75.13 46.01C74.91 45.85 74.74 45.64 74.61 45.39C74.49 45.13 74.43 44.82 74.43 44.45C74.43 44.04 74.5 43.7 74.64 43.44C74.78 43.18 74.96 42.97 75.18 42.81C75.42 42.64 75.68 42.52 75.97 42.43C76.27 42.35 76.57 42.28 76.88 42.22C77.21 42.16 77.52 42.11 77.81 42.08C78.1 42.04 78.37 42 78.59 41.94C78.82 41.88 78.99 41.79 79.12 41.67C79.25 41.55 79.32 41.38 79.32 41.16C79.32 40.89 79.27 40.68 79.17 40.52C79.07 40.37 78.95 40.24 78.79 40.16C78.64 40.08 78.46 40.02 78.27 39.99C78.08 39.96 77.89 39.95 77.71 39.95C77.2 39.95 76.78 40.05 76.45 40.24C76.11 40.43 75.93 40.79 75.9 41.32H74.71C74.72 40.87 74.82 40.5 74.99 40.19C75.15 39.88 75.38 39.63 75.66 39.44C75.94 39.25 76.26 39.11 76.61 39.02C76.98 38.94 77.37 38.9 77.78 38.9C78.1 38.9 78.43 38.92 78.75 38.97C79.07 39.01 79.37 39.11 79.63 39.26C79.89 39.4 80.1 39.6 80.26 39.87C80.42 40.13 80.5 40.47 80.5 40.89V44.62C80.5 44.9 80.51 45.11 80.54 45.24C80.58 45.37 80.69 45.43 80.88 45.43C80.98 45.43 81.1 45.41 81.24 45.36V46.29ZM79.31 42.57C79.16 42.68 78.96 42.77 78.72 42.82C78.47 42.87 78.22 42.91 77.95 42.95C77.68 42.98 77.42 43.02 77.15 43.06C76.88 43.1 76.63 43.17 76.42 43.26C76.2 43.35 76.02 43.49 75.88 43.67C75.75 43.83 75.69 44.07 75.69 44.37C75.69 44.56 75.73 44.73 75.8 44.87C75.88 45 75.99 45.11 76.11 45.19C76.24 45.28 76.39 45.34 76.56 45.38C76.73 45.41 76.9 45.43 77.09 45.43C77.48 45.43 77.82 45.38 78.1 45.28C78.38 45.17 78.61 45.03 78.79 44.87C78.97 44.7 79.1 44.53 79.18 44.34C79.26 44.14 79.31 43.96 79.31 43.79V42.57ZM82.35 39.07H83.47V40.22H83.5C84 39.34 84.78 38.9 85.86 38.9C86.33 38.9 86.73 38.96 87.05 39.09C87.37 39.22 87.62 39.41 87.82 39.64C88.02 39.87 88.15 40.15 88.23 40.48C88.31 40.8 88.35 41.16 88.35 41.55V46.32H87.16V41.41C87.16 40.96 87.03 40.6 86.77 40.34C86.51 40.08 86.15 39.95 85.69 39.95C85.32 39.95 85.01 40.01 84.74 40.12C84.47 40.23 84.25 40.39 84.08 40.59C83.9 40.8 83.76 41.04 83.67 41.32C83.59 41.59 83.54 41.89 83.54 42.22V46.32H82.35V39.07ZM94.78 44.03C94.79 44.29 94.85 44.52 94.96 44.7C95.07 44.88 95.22 45.03 95.39 45.14C95.58 45.24 95.79 45.32 96.01 45.36C96.25 45.41 96.48 45.43 96.73 45.43C96.91 45.43 97.11 45.42 97.32 45.39C97.52 45.36 97.71 45.31 97.88 45.24C98.05 45.16 98.2 45.05 98.31 44.91C98.42 44.76 98.48 44.58 98.48 44.35C98.48 44.04 98.36 43.81 98.13 43.65C97.9 43.49 97.6 43.37 97.25 43.27C96.9 43.17 96.52 43.08 96.11 43.01C95.7 42.92 95.31 42.81 94.96 42.67C94.61 42.52 94.32 42.31 94.09 42.05C93.86 41.79 93.74 41.43 93.74 40.96C93.74 40.59 93.82 40.28 93.98 40.02C94.15 39.76 94.36 39.55 94.61 39.39C94.87 39.22 95.16 39.1 95.48 39.02C95.81 38.94 96.13 38.9 96.45 38.9C96.86 38.9 97.24 38.93 97.58 39.01C97.93 39.08 98.23 39.2 98.49 39.37C98.77 39.54 98.98 39.78 99.14 40.08C99.3 40.37 99.39 40.73 99.42 41.17H98.23C98.21 40.94 98.15 40.74 98.05 40.59C97.94 40.44 97.81 40.31 97.65 40.22C97.49 40.12 97.32 40.06 97.12 40.02C96.93 39.97 96.74 39.95 96.54 39.95C96.37 39.95 96.18 39.96 96 39.99C95.82 40.02 95.66 40.07 95.51 40.15C95.36 40.21 95.24 40.3 95.14 40.43C95.05 40.54 95 40.69 95 40.87C95 41.08 95.07 41.25 95.21 41.39C95.36 41.52 95.55 41.64 95.77 41.73C96 41.81 96.25 41.89 96.53 41.95C96.81 42.01 97.09 42.07 97.37 42.14C97.67 42.2 97.96 42.28 98.24 42.38C98.53 42.47 98.78 42.6 99 42.75C99.22 42.9 99.4 43.1 99.53 43.33C99.67 43.56 99.74 43.85 99.74 44.2C99.74 44.64 99.65 45 99.46 45.29C99.28 45.58 99.05 45.82 98.75 45.99C98.46 46.17 98.12 46.29 97.75 46.36C97.39 46.43 97.02 46.47 96.66 46.47C96.25 46.47 95.87 46.43 95.51 46.34C95.14 46.26 94.82 46.12 94.54 45.94C94.26 45.74 94.03 45.49 93.87 45.18C93.7 44.86 93.6 44.48 93.59 44.03H94.78ZM107.48 46.29C107.28 46.41 106.99 46.47 106.63 46.47C106.32 46.47 106.07 46.39 105.89 46.22C105.71 46.04 105.62 45.76 105.62 45.36C105.29 45.76 104.91 46.04 104.47 46.22C104.04 46.39 103.57 46.47 103.07 46.47C102.74 46.47 102.43 46.43 102.13 46.36C101.84 46.28 101.58 46.17 101.37 46.01C101.15 45.85 100.98 45.64 100.85 45.39C100.73 45.13 100.67 44.82 100.67 44.45C100.67 44.04 100.74 43.7 100.88 43.44C101.02 43.18 101.2 42.97 101.42 42.81C101.66 42.64 101.92 42.52 102.21 42.43C102.51 42.35 102.81 42.28 103.12 42.22C103.45 42.16 103.76 42.11 104.05 42.08C104.35 42.04 104.61 42 104.83 41.94C105.06 41.88 105.23 41.79 105.37 41.67C105.5 41.55 105.56 41.38 105.56 41.16C105.56 40.89 105.51 40.68 105.41 40.52C105.31 40.37 105.19 40.24 105.03 40.16C104.88 40.08 104.71 40.02 104.51 39.99C104.32 39.96 104.14 39.95 103.95 39.95C103.44 39.95 103.02 40.05 102.69 40.24C102.35 40.43 102.17 40.79 102.14 41.32H100.95C100.97 40.87 101.06 40.5 101.23 40.19C101.4 39.88 101.62 39.63 101.9 39.44C102.18 39.25 102.5 39.11 102.86 39.02C103.22 38.94 103.61 38.9 104.02 38.9C104.35 38.9 104.67 38.92 104.99 38.97C105.31 39.01 105.61 39.11 105.87 39.26C106.13 39.4 106.34 39.6 106.5 39.87C106.66 40.13 106.74 40.47 106.74 40.89V44.62C106.74 44.9 106.75 45.11 106.78 45.24C106.82 45.37 106.93 45.43 107.12 45.43C107.22 45.43 107.34 45.41 107.48 45.36V46.29ZM105.55 42.57C105.4 42.68 105.2 42.77 104.96 42.82C104.72 42.87 104.46 42.91 104.19 42.95C103.93 42.98 103.66 43.02 103.39 43.06C103.12 43.1 102.87 43.17 102.66 43.26C102.44 43.35 102.27 43.49 102.13 43.67C102 43.83 101.93 44.07 101.93 44.37C101.93 44.56 101.97 44.73 102.04 44.87C102.13 45 102.23 45.11 102.35 45.19C102.48 45.28 102.63 45.34 102.8 45.38C102.97 45.41 103.14 45.43 103.33 45.43C103.72 45.43 104.06 45.38 104.34 45.28C104.62 45.17 104.85 45.03 105.03 44.87C105.21 44.7 105.34 44.53 105.42 44.34C105.51 44.14 105.55 43.96 105.55 43.79V42.57ZM111.44 47.28C111.3 47.64 111.16 47.94 111.02 48.18C110.89 48.42 110.74 48.62 110.57 48.77C110.41 48.93 110.23 49.04 110.02 49.11C109.83 49.18 109.6 49.22 109.34 49.22C109.2 49.22 109.06 49.21 108.92 49.19C108.78 49.17 108.64 49.14 108.51 49.09V48C108.61 48.05 108.73 48.08 108.86 48.11C109 48.15 109.12 48.17 109.21 48.17C109.45 48.17 109.66 48.11 109.81 47.99C109.98 47.87 110.11 47.71 110.19 47.49L110.68 46.27L107.81 39.07H109.15L111.27 45H111.3L113.33 39.07H114.6L111.44 47.28ZM117.26 39.07H118.7V40.12H117.26V44.62C117.26 44.76 117.27 44.87 117.29 44.96C117.32 45.04 117.36 45.11 117.43 45.15C117.5 45.2 117.58 45.23 117.7 45.25C117.82 45.26 117.97 45.26 118.16 45.26H118.7V46.32H117.79C117.48 46.32 117.22 46.3 116.99 46.26C116.78 46.21 116.6 46.13 116.46 46.02C116.33 45.91 116.23 45.75 116.17 45.55C116.1 45.34 116.07 45.07 116.07 44.73V40.12H114.83V39.07H116.07V36.89H117.26V39.07ZM127.2 46.32H125.92L123.23 39.07H124.56L126.6 45.11H126.63L128.6 39.07H129.85L127.2 46.32ZM137.37 46.29C137.16 46.41 136.88 46.47 136.51 46.47C136.21 46.47 135.96 46.39 135.77 46.22C135.59 46.04 135.5 45.76 135.5 45.36C135.18 45.76 134.79 46.04 134.35 46.22C133.92 46.39 133.46 46.47 132.95 46.47C132.62 46.47 132.31 46.43 132.01 46.36C131.72 46.28 131.47 46.17 131.25 46.01C131.04 45.85 130.87 45.64 130.74 45.39C130.61 45.13 130.55 44.82 130.55 44.45C130.55 44.04 130.62 43.7 130.76 43.44C130.9 43.18 131.09 42.97 131.31 42.81C131.54 42.64 131.81 42.52 132.1 42.43C132.4 42.35 132.7 42.28 133.01 42.22C133.34 42.16 133.64 42.11 133.93 42.08C134.23 42.04 134.49 42 134.72 41.94C134.94 41.88 135.12 41.79 135.25 41.67C135.38 41.55 135.45 41.38 135.45 41.16C135.45 40.89 135.4 40.68 135.29 40.52C135.2 40.37 135.07 40.24 134.91 40.16C134.76 40.08 134.59 40.02 134.4 39.99C134.21 39.96 134.02 39.95 133.84 39.95C133.33 39.95 132.91 40.05 132.57 40.24C132.24 40.43 132.05 40.79 132.03 41.32H130.83C130.85 40.87 130.95 40.5 131.11 40.19C131.28 39.88 131.51 39.63 131.79 39.44C132.07 39.25 132.39 39.11 132.74 39.02C133.11 38.94 133.49 38.9 133.91 38.9C134.23 38.9 134.56 38.92 134.87 38.97C135.2 39.01 135.5 39.11 135.76 39.26C136.02 39.4 136.23 39.6 136.39 39.87C136.55 40.13 136.63 40.47 136.63 40.89V44.62C136.63 44.9 136.64 45.11 136.67 45.24C136.71 45.37 136.82 45.43 137 45.43C137.11 45.43 137.23 45.41 137.37 45.36V46.29ZM135.43 42.57C135.28 42.68 135.09 42.77 134.84 42.82C134.6 42.87 134.34 42.91 134.07 42.95C133.81 42.98 133.54 43.02 133.27 43.06C133 43.1 132.76 43.17 132.54 43.26C132.33 43.35 132.15 43.49 132.01 43.67C131.88 43.83 131.81 44.07 131.81 44.37C131.81 44.56 131.85 44.73 131.93 44.87C132.01 45 132.11 45.11 132.24 45.19C132.37 45.28 132.52 45.34 132.69 45.38C132.85 45.41 133.03 45.43 133.22 45.43C133.61 45.43 133.95 45.38 134.23 45.28C134.51 45.17 134.74 45.03 134.91 44.87C135.09 44.7 135.22 44.53 135.31 44.34C135.39 44.14 135.43 43.96 135.43 43.79V42.57ZM144.85 37.42H141.51V36.3H149.52V37.42H146.18V46.32H144.85V37.42ZM153.91 42C153.89 41.72 153.82 41.45 153.71 41.2C153.61 40.95 153.47 40.73 153.28 40.55C153.1 40.37 152.88 40.22 152.63 40.12C152.39 40.01 152.12 39.95 151.82 39.95C151.51 39.95 151.23 40.01 150.98 40.12C150.74 40.22 150.52 40.37 150.35 40.55C150.17 40.74 150.03 40.96 149.93 41.21C149.82 41.45 149.76 41.72 149.74 42H153.91ZM155.06 44.02C154.9 44.83 154.55 45.44 154.01 45.85C153.47 46.27 152.78 46.47 151.96 46.47C151.38 46.47 150.88 46.38 150.44 46.19C150.02 46 149.67 45.74 149.38 45.41C149.09 45.07 148.87 44.67 148.72 44.2C148.58 43.73 148.5 43.22 148.48 42.67C148.48 42.12 148.57 41.61 148.73 41.16C148.9 40.7 149.14 40.3 149.44 39.96C149.74 39.63 150.1 39.36 150.51 39.18C150.94 38.99 151.39 38.9 151.89 38.9C152.53 38.9 153.07 39.03 153.49 39.3C153.92 39.57 154.26 39.9 154.51 40.31C154.77 40.73 154.95 41.17 155.04 41.66C155.15 42.15 155.19 42.61 155.17 43.05H149.74C149.73 43.37 149.77 43.67 149.86 43.96C149.94 44.24 150.08 44.49 150.26 44.72C150.45 44.93 150.69 45.11 150.98 45.24C151.27 45.37 151.61 45.43 152 45.43C152.51 45.43 152.92 45.32 153.24 45.08C153.56 44.85 153.78 44.49 153.88 44.02H155.06ZM156.48 36.3H157.67V46.32H156.48V36.3ZM164.55 42C164.53 41.72 164.47 41.45 164.35 41.2C164.25 40.95 164.11 40.73 163.92 40.55C163.74 40.37 163.53 40.22 163.28 40.12C163.03 40.01 162.76 39.95 162.46 39.95C162.15 39.95 161.87 40.01 161.62 40.12C161.38 40.22 161.17 40.37 160.99 40.55C160.81 40.74 160.67 40.96 160.57 41.21C160.47 41.45 160.4 41.72 160.39 42H164.55ZM165.7 44.02C165.54 44.83 165.19 45.44 164.65 45.85C164.11 46.27 163.43 46.47 162.6 46.47C162.02 46.47 161.52 46.38 161.09 46.19C160.67 46 160.31 45.74 160.02 45.41C159.73 45.07 159.51 44.67 159.36 44.2C159.22 43.73 159.14 43.22 159.12 42.67C159.12 42.12 159.21 41.61 159.38 41.16C159.54 40.7 159.78 40.3 160.08 39.96C160.39 39.63 160.75 39.36 161.16 39.18C161.58 38.99 162.04 38.9 162.53 38.9C163.18 38.9 163.71 39.03 164.13 39.3C164.56 39.57 164.9 39.9 165.15 40.31C165.42 40.73 165.59 41.17 165.69 41.66C165.79 42.15 165.83 42.61 165.81 43.05H160.39C160.38 43.37 160.41 43.67 160.5 43.96C160.58 44.24 160.72 44.49 160.91 44.72C161.09 44.93 161.33 45.11 161.62 45.24C161.91 45.37 162.25 45.43 162.64 45.43C163.15 45.43 163.56 45.32 163.88 45.08C164.21 44.85 164.42 44.49 164.52 44.02H165.7ZM173.3 45.7C173.3 46.89 173.03 47.78 172.49 48.36C171.95 48.95 171.1 49.25 169.94 49.25C169.6 49.25 169.26 49.21 168.9 49.14C168.56 49.06 168.24 48.94 167.95 48.77C167.67 48.6 167.43 48.38 167.25 48.11C167.06 47.84 166.96 47.51 166.94 47.12H168.13C168.14 47.33 168.2 47.51 168.32 47.66C168.46 47.81 168.61 47.93 168.79 48.03C168.97 48.12 169.18 48.19 169.39 48.22C169.61 48.27 169.81 48.29 170.01 48.29C170.4 48.29 170.73 48.22 171 48.08C171.28 47.95 171.5 47.77 171.68 47.52C171.85 47.29 171.98 47 172.06 46.67C172.14 46.33 172.18 45.96 172.18 45.56V45.08H172.15C171.95 45.53 171.63 45.86 171.22 46.08C170.8 46.28 170.36 46.39 169.9 46.39C169.35 46.39 168.88 46.29 168.48 46.09C168.08 45.9 167.74 45.63 167.47 45.31C167.2 44.97 166.99 44.58 166.85 44.14C166.72 43.69 166.66 43.22 166.66 42.73C166.66 42.3 166.71 41.86 166.82 41.41C166.94 40.95 167.12 40.54 167.39 40.17C167.65 39.8 167.99 39.5 168.42 39.26C168.85 39.02 169.38 38.9 170.01 38.9C170.47 38.9 170.89 39 171.27 39.21C171.65 39.4 171.95 39.7 172.17 40.1H172.18V39.07H173.3V45.7ZM169.97 45.35C170.36 45.35 170.69 45.27 170.96 45.11C171.24 44.94 171.47 44.73 171.63 44.47C171.8 44.19 171.93 43.89 172 43.55C172.08 43.22 172.13 42.88 172.13 42.54C172.13 42.23 172.09 41.91 172.01 41.6C171.94 41.3 171.82 41.02 171.65 40.78C171.49 40.52 171.28 40.32 171.02 40.17C170.76 40.02 170.44 39.95 170.06 39.95C169.68 39.95 169.35 40.02 169.08 40.17C168.81 40.31 168.59 40.51 168.41 40.75C168.24 40.99 168.12 41.27 168.03 41.59C167.96 41.91 167.92 42.24 167.92 42.59C167.92 42.91 167.95 43.24 168.02 43.57C168.08 43.89 168.19 44.19 168.35 44.47C168.51 44.73 168.72 44.94 168.99 45.11C169.25 45.27 169.57 45.35 169.97 45.35ZM175.06 39.07H176.18V40.59H176.21C176.5 40.01 176.86 39.57 177.28 39.29C177.7 39.01 178.23 38.88 178.88 38.9V40.16C178.4 40.16 177.99 40.23 177.66 40.36C177.32 40.49 177.05 40.68 176.84 40.93C176.64 41.18 176.49 41.49 176.39 41.86C176.3 42.21 176.25 42.62 176.25 43.09V46.32H175.06V39.07ZM186.2 46.29C185.99 46.41 185.71 46.47 185.34 46.47C185.03 46.47 184.78 46.39 184.6 46.22C184.42 46.04 184.33 45.76 184.33 45.36C184 45.76 183.62 46.04 183.18 46.22C182.75 46.39 182.28 46.47 181.78 46.47C181.45 46.47 181.14 46.43 180.84 46.36C180.55 46.28 180.3 46.17 180.08 46.01C179.87 45.85 179.69 45.64 179.56 45.39C179.44 45.13 179.38 44.82 179.38 44.45C179.38 44.04 179.45 43.7 179.59 43.44C179.73 43.18 179.91 42.97 180.14 42.81C180.37 42.64 180.63 42.52 180.92 42.43C181.22 42.35 181.53 42.28 181.84 42.22C182.16 42.16 182.47 42.11 182.76 42.08C183.06 42.04 183.32 42 183.55 41.94C183.77 41.88 183.95 41.79 184.08 41.67C184.21 41.55 184.28 41.38 184.28 41.16C184.28 40.89 184.22 40.68 184.12 40.52C184.03 40.37 183.9 40.24 183.74 40.16C183.59 40.08 183.42 40.02 183.22 39.99C183.04 39.96 182.85 39.95 182.66 39.95C182.16 39.95 181.74 40.05 181.4 40.24C181.06 40.43 180.88 40.79 180.85 41.32H179.66C179.68 40.87 179.77 40.5 179.94 40.19C180.11 39.88 180.33 39.63 180.62 39.44C180.9 39.25 181.21 39.11 181.57 39.02C181.93 38.94 182.32 38.9 182.73 38.9C183.06 38.9 183.38 38.92 183.7 38.97C184.03 39.01 184.32 39.11 184.58 39.26C184.84 39.4 185.06 39.6 185.22 39.87C185.37 40.13 185.45 40.47 185.45 40.89V44.62C185.45 44.9 185.47 45.11 185.5 45.24C185.53 45.37 185.65 45.43 185.83 45.43C185.94 45.43 186.06 45.41 186.2 45.36V46.29ZM184.26 42.57C184.11 42.68 183.91 42.77 183.67 42.82C183.43 42.87 183.17 42.91 182.9 42.95C182.64 42.98 182.37 43.02 182.1 43.06C181.83 43.1 181.59 43.17 181.37 43.26C181.16 43.35 180.98 43.49 180.84 43.67C180.71 43.83 180.64 44.07 180.64 44.37C180.64 44.56 180.68 44.73 180.75 44.87C180.84 45 180.94 45.11 181.06 45.19C181.19 45.28 181.34 45.34 181.51 45.38C181.68 45.41 181.86 45.43 182.04 45.43C182.44 45.43 182.77 45.38 183.06 45.28C183.34 45.17 183.56 45.03 183.74 44.87C183.92 44.7 184.05 44.53 184.13 44.34C184.22 44.14 184.26 43.96 184.26 43.79V42.57ZM187.31 39.07H188.43V40.13H188.46C189 39.31 189.78 38.9 190.8 38.9C191.25 38.9 191.65 38.99 192.02 39.18C192.38 39.36 192.64 39.68 192.79 40.13C193.03 39.74 193.35 39.44 193.74 39.22C194.15 39 194.59 38.9 195.06 38.9C195.43 38.9 195.75 38.94 196.04 39.02C196.34 39.1 196.59 39.22 196.8 39.39C197.02 39.56 197.18 39.78 197.29 40.05C197.41 40.31 197.47 40.63 197.47 41V46.32H196.28V41.56C196.28 41.34 196.26 41.13 196.23 40.93C196.19 40.73 196.12 40.57 196.02 40.43C195.91 40.28 195.77 40.16 195.58 40.08C195.4 39.99 195.17 39.95 194.88 39.95C194.29 39.95 193.83 40.12 193.49 40.45C193.15 40.79 192.99 41.24 192.99 41.8V46.32H191.79V41.56C191.79 41.33 191.77 41.11 191.72 40.92C191.69 40.72 191.62 40.55 191.51 40.41C191.41 40.26 191.27 40.15 191.09 40.08C190.92 39.99 190.71 39.95 190.43 39.95C190.09 39.95 189.79 40.02 189.54 40.16C189.29 40.3 189.09 40.47 188.93 40.66C188.78 40.86 188.67 41.07 188.6 41.28C188.53 41.49 188.5 41.66 188.5 41.8V46.32H187.31V39.07ZM203.21 36.3H204.4V40.05H204.43C204.62 39.65 204.93 39.36 205.35 39.18C205.78 38.99 206.24 38.9 206.74 38.9C207.3 38.9 207.79 39 208.2 39.21C208.62 39.41 208.97 39.69 209.24 40.05C209.52 40.39 209.73 40.8 209.87 41.25C210.01 41.71 210.08 42.2 210.08 42.71C210.08 43.23 210.01 43.71 209.87 44.17C209.74 44.63 209.53 45.03 209.25 45.38C208.98 45.71 208.64 45.98 208.22 46.18C207.8 46.37 207.32 46.47 206.77 46.47C206.59 46.47 206.39 46.45 206.17 46.41C205.95 46.38 205.74 46.32 205.52 46.23C205.31 46.15 205.1 46.04 204.91 45.9C204.72 45.75 204.56 45.56 204.43 45.35H204.4V46.32H203.21V36.3ZM208.82 42.63C208.82 42.29 208.77 41.96 208.68 41.65C208.59 41.32 208.46 41.03 208.27 40.78C208.09 40.52 207.86 40.32 207.57 40.17C207.29 40.02 206.96 39.95 206.57 39.95C206.17 39.95 205.83 40.03 205.55 40.19C205.27 40.35 205.04 40.56 204.86 40.82C204.69 41.07 204.56 41.36 204.47 41.69C204.4 42.02 204.36 42.35 204.36 42.68C204.36 43.04 204.4 43.39 204.49 43.72C204.57 44.05 204.7 44.34 204.88 44.59C205.06 44.84 205.3 45.05 205.59 45.21C205.88 45.36 206.23 45.43 206.64 45.43C207.06 45.43 207.4 45.35 207.67 45.19C207.95 45.04 208.17 44.83 208.34 44.56C208.51 44.3 208.63 44 208.71 43.67C208.78 43.33 208.82 42.98 208.82 42.63ZM212.35 42.7C212.35 43.14 212.41 43.53 212.52 43.88C212.64 44.21 212.8 44.5 213.01 44.73C213.21 44.96 213.45 45.13 213.72 45.25C214 45.37 214.3 45.43 214.61 45.43C214.92 45.43 215.21 45.37 215.48 45.25C215.76 45.13 216 44.96 216.21 44.73C216.41 44.5 216.57 44.21 216.68 43.88C216.81 43.53 216.87 43.14 216.87 42.7C216.87 42.26 216.81 41.87 216.68 41.53C216.57 41.19 216.41 40.9 216.21 40.66C216 40.43 215.76 40.25 215.48 40.13C215.21 40.01 214.92 39.95 214.61 39.95C214.3 39.95 214 40.01 213.72 40.13C213.45 40.25 213.21 40.43 213.01 40.66C212.8 40.9 212.64 41.19 212.52 41.53C212.41 41.87 212.35 42.26 212.35 42.7ZM211.09 42.7C211.09 42.17 211.16 41.67 211.31 41.21C211.46 40.74 211.69 40.34 211.99 40.01C212.28 39.66 212.65 39.39 213.09 39.19C213.53 39 214.04 38.9 214.61 38.9C215.19 38.9 215.69 39 216.12 39.19C216.56 39.39 216.93 39.66 217.23 40.01C217.53 40.34 217.75 40.74 217.9 41.21C218.05 41.67 218.13 42.17 218.13 42.7C218.13 43.23 218.05 43.73 217.9 44.18C217.75 44.64 217.53 45.05 217.23 45.39C216.93 45.73 216.56 45.99 216.12 46.19C215.69 46.38 215.19 46.47 214.61 46.47C214.04 46.47 213.53 46.38 213.09 46.19C212.65 45.99 212.28 45.73 211.99 45.39C211.69 45.05 211.46 44.64 211.31 44.18C211.16 43.73 211.09 43.23 211.09 42.7ZM221.19 39.07H222.63V40.12H221.19V44.62C221.19 44.76 221.2 44.87 221.22 44.96C221.24 45.04 221.29 45.11 221.36 45.15C221.42 45.2 221.51 45.23 221.62 45.25C221.75 45.26 221.9 45.26 222.09 45.26H222.63V46.32H221.72C221.41 46.32 221.15 46.3 220.92 46.26C220.71 46.21 220.53 46.13 220.39 46.02C220.26 45.91 220.16 45.75 220.09 45.55C220.03 45.34 220 45.07 220 44.73V40.12H218.76V39.07H220V36.89H221.19V39.07ZM230.71 47.28C230.57 47.64 230.43 47.94 230.29 48.18C230.16 48.42 230.01 48.62 229.84 48.77C229.68 48.93 229.5 49.04 229.29 49.11C229.09 49.18 228.87 49.22 228.6 49.22C228.46 49.22 228.32 49.21 228.18 49.19C228.04 49.17 227.91 49.14 227.78 49.09V48C227.88 48.05 228 48.08 228.13 48.11C228.27 48.15 228.38 48.17 228.48 48.17C228.72 48.17 228.92 48.11 229.08 47.99C229.25 47.87 229.38 47.71 229.46 47.49L229.95 46.27L227.07 39.07H228.42L230.54 45H230.57L232.6 39.07H233.86L230.71 47.28ZM241.3 46.29C241.09 46.41 240.81 46.47 240.44 46.47C240.13 46.47 239.88 46.39 239.7 46.22C239.52 46.04 239.43 45.76 239.43 45.36C239.1 45.76 238.72 46.04 238.28 46.22C237.85 46.39 237.38 46.47 236.88 46.47C236.55 46.47 236.24 46.43 235.94 46.36C235.65 46.28 235.4 46.17 235.18 46.01C234.97 45.85 234.79 45.64 234.66 45.39C234.54 45.13 234.48 44.82 234.48 44.45C234.48 44.04 234.55 43.7 234.69 43.44C234.83 43.18 235.01 42.97 235.24 42.81C235.47 42.64 235.73 42.52 236.02 42.43C236.32 42.35 236.63 42.28 236.94 42.22C237.26 42.16 237.57 42.11 237.86 42.08C238.16 42.04 238.42 42 238.65 41.94C238.87 41.88 239.05 41.79 239.18 41.67C239.31 41.55 239.38 41.38 239.38 41.16C239.38 40.89 239.32 40.68 239.22 40.52C239.13 40.37 239 40.24 238.84 40.16C238.69 40.08 238.52 40.02 238.32 39.99C238.14 39.96 237.95 39.95 237.76 39.95C237.26 39.95 236.84 40.05 236.5 40.24C236.16 40.43 235.98 40.79 235.95 41.32H234.76C234.78 40.87 234.87 40.5 235.04 40.19C235.21 39.88 235.43 39.63 235.72 39.44C236 39.25 236.31 39.11 236.67 39.02C237.03 38.94 237.42 38.9 237.83 38.9C238.16 38.9 238.48 38.92 238.8 38.97C239.13 39.01 239.42 39.11 239.68 39.26C239.95 39.4 240.16 39.6 240.31 39.87C240.47 40.13 240.55 40.47 240.55 40.89V44.62C240.55 44.9 240.57 45.11 240.59 45.24C240.63 45.37 240.75 45.43 240.93 45.43C241.03 45.43 241.16 45.41 241.3 45.36V46.29ZM239.36 42.57C239.21 42.68 239.01 42.77 238.77 42.82C238.53 42.87 238.27 42.91 238 42.95C237.74 42.98 237.47 43.02 237.2 43.06C236.93 43.1 236.69 43.17 236.47 43.26C236.26 43.35 236.08 43.49 235.94 43.67C235.81 43.83 235.74 44.07 235.74 44.37C235.74 44.56 235.78 44.73 235.85 44.87C235.94 45 236.04 45.11 236.16 45.19C236.29 45.28 236.44 45.34 236.61 45.38C236.78 45.41 236.96 45.43 237.15 45.43C237.54 45.43 237.88 45.38 238.16 45.28C238.44 45.17 238.66 45.03 238.84 44.87C239.02 44.7 239.15 44.53 239.24 44.34C239.32 44.14 239.36 43.96 239.36 43.79V42.57ZM243.13 44.03C243.15 44.29 243.21 44.52 243.32 44.7C243.43 44.88 243.57 45.03 243.75 45.14C243.94 45.24 244.15 45.32 244.37 45.36C244.6 45.41 244.84 45.43 245.09 45.43C245.27 45.43 245.47 45.42 245.67 45.39C245.88 45.36 246.07 45.31 246.24 45.24C246.41 45.16 246.56 45.05 246.67 44.91C246.78 44.76 246.84 44.58 246.84 44.35C246.84 44.04 246.72 43.81 246.49 43.65C246.25 43.49 245.96 43.37 245.6 43.27C245.26 43.17 244.88 43.08 244.47 43.01C244.06 42.92 243.67 42.81 243.32 42.67C242.97 42.52 242.68 42.31 242.45 42.05C242.22 41.79 242.1 41.43 242.1 40.96C242.1 40.59 242.18 40.28 242.34 40.02C242.5 39.76 242.72 39.55 242.97 39.39C243.23 39.22 243.52 39.1 243.84 39.02C244.16 38.94 244.49 38.9 244.8 38.9C245.22 38.9 245.59 38.93 245.94 39.01C246.29 39.08 246.59 39.2 246.85 39.37C247.12 39.54 247.34 39.78 247.5 40.08C247.66 40.37 247.75 40.73 247.78 41.17H246.59C246.57 40.94 246.51 40.74 246.4 40.59C246.3 40.44 246.17 40.31 246.01 40.22C245.85 40.12 245.67 40.06 245.48 40.02C245.29 39.97 245.1 39.95 244.9 39.95C244.72 39.95 244.54 39.96 244.36 39.99C244.18 40.02 244.01 40.07 243.87 40.15C243.72 40.21 243.59 40.3 243.5 40.43C243.41 40.54 243.36 40.69 243.36 40.87C243.36 41.08 243.43 41.25 243.57 41.39C243.72 41.52 243.91 41.64 244.13 41.73C244.36 41.81 244.61 41.89 244.89 41.95C245.17 42.01 245.45 42.07 245.73 42.14C246.03 42.2 246.32 42.28 246.6 42.38C246.89 42.47 247.14 42.6 247.36 42.75C247.58 42.9 247.76 43.1 247.89 43.33C248.03 43.56 248.1 43.85 248.1 44.2C248.1 44.64 248.01 45 247.82 45.29C247.64 45.58 247.4 45.82 247.1 45.99C246.81 46.17 246.48 46.29 246.11 46.36C245.74 46.43 245.38 46.47 245.01 46.47C244.61 46.47 244.23 46.43 243.87 46.34C243.5 46.26 243.18 46.12 242.9 45.94C242.62 45.74 242.39 45.49 242.22 45.18C242.06 44.86 241.96 44.48 241.94 44.03H243.13ZM255.84 46.29C255.64 46.41 255.35 46.47 254.99 46.47C254.68 46.47 254.43 46.39 254.24 46.22C254.07 46.04 253.98 45.76 253.98 45.36C253.65 45.76 253.27 46.04 252.83 46.22C252.4 46.39 251.93 46.47 251.42 46.47C251.1 46.47 250.78 46.43 250.49 46.36C250.19 46.28 249.94 46.17 249.73 46.01C249.51 45.85 249.34 45.64 249.21 45.39C249.09 45.13 249.03 44.82 249.03 44.45C249.03 44.04 249.1 43.7 249.24 43.44C249.38 43.18 249.56 42.97 249.78 42.81C250.02 42.64 250.28 42.52 250.57 42.43C250.87 42.35 251.17 42.28 251.48 42.22C251.81 42.16 252.12 42.11 252.41 42.08C252.71 42.04 252.97 42 253.19 41.94C253.42 41.88 253.59 41.79 253.72 41.67C253.85 41.55 253.92 41.38 253.92 41.16C253.92 40.89 253.87 40.68 253.77 40.52C253.67 40.37 253.55 40.24 253.39 40.16C253.24 40.08 253.06 40.02 252.87 39.99C252.68 39.96 252.5 39.95 252.31 39.95C251.8 39.95 251.38 40.05 251.05 40.24C250.71 40.43 250.53 40.79 250.5 41.32H249.31C249.32 40.87 249.42 40.5 249.59 40.19C249.75 39.88 249.98 39.63 250.26 39.44C250.54 39.25 250.86 39.11 251.21 39.02C251.58 38.94 251.97 38.9 252.38 38.9C252.71 38.9 253.03 38.92 253.35 38.97C253.67 39.01 253.97 39.11 254.23 39.26C254.49 39.4 254.7 39.6 254.86 39.87C255.02 40.13 255.1 40.47 255.1 40.89V44.62C255.1 44.9 255.11 45.11 255.14 45.24C255.18 45.37 255.29 45.43 255.48 45.43C255.58 45.43 255.7 45.41 255.84 45.36V46.29ZM253.91 42.57C253.76 42.68 253.56 42.77 253.32 42.82C253.07 42.87 252.82 42.91 252.55 42.95C252.28 42.98 252.02 43.02 251.75 43.06C251.48 43.1 251.23 43.17 251.02 43.26C250.8 43.35 250.62 43.49 250.49 43.67C250.35 43.83 250.29 44.07 250.29 44.37C250.29 44.56 250.33 44.73 250.4 44.87C250.49 45 250.59 45.11 250.71 45.19C250.84 45.28 250.99 45.34 251.16 45.38C251.33 45.41 251.5 45.43 251.69 45.43C252.08 45.43 252.42 45.38 252.7 45.28C252.98 45.17 253.21 45.03 253.39 44.87C253.56 44.7 253.7 44.53 253.78 44.34C253.87 44.14 253.91 43.96 253.91 43.79V42.57ZM256.95 39.07H258.07V40.22H258.1C258.6 39.34 259.38 38.9 260.46 38.9C260.94 38.9 261.33 38.96 261.65 39.09C261.97 39.22 262.23 39.41 262.42 39.64C262.62 39.87 262.75 40.15 262.83 40.48C262.91 40.8 262.95 41.16 262.95 41.55V46.32H261.76V41.41C261.76 40.96 261.63 40.6 261.37 40.34C261.11 40.08 260.75 39.95 260.29 39.95C259.93 39.95 259.61 40.01 259.34 40.12C259.07 40.23 258.85 40.39 258.68 40.59C258.5 40.8 258.36 41.04 258.27 41.32C258.19 41.59 258.14 41.89 258.14 42.22V46.32H256.95V39.07ZM271 45.7C271 46.89 270.73 47.78 270.19 48.36C269.64 48.95 268.79 49.25 267.63 49.25C267.3 49.25 266.95 49.21 266.6 49.14C266.25 49.06 265.93 48.94 265.64 48.77C265.36 48.6 265.13 48.38 264.94 48.11C264.75 47.84 264.65 47.51 264.63 47.12H265.82C265.83 47.33 265.9 47.51 266.02 47.66C266.15 47.81 266.31 47.93 266.48 48.03C266.67 48.12 266.87 48.19 267.09 48.22C267.3 48.27 267.51 48.29 267.7 48.29C268.1 48.29 268.43 48.22 268.7 48.08C268.97 47.95 269.19 47.77 269.37 47.52C269.55 47.29 269.68 47 269.75 46.67C269.84 46.33 269.88 45.96 269.88 45.56V45.08H269.85C269.64 45.53 269.33 45.86 268.91 46.08C268.5 46.28 268.06 46.39 267.59 46.39C267.05 46.39 266.58 46.29 266.18 46.09C265.77 45.9 265.44 45.63 265.17 45.31C264.89 44.97 264.69 44.58 264.55 44.14C264.42 43.69 264.35 43.22 264.35 42.73C264.35 42.3 264.41 41.86 264.52 41.41C264.63 40.95 264.82 40.54 265.08 40.17C265.34 39.8 265.69 39.5 266.12 39.26C266.55 39.02 267.08 38.9 267.7 38.9C268.16 38.9 268.58 39 268.97 39.21C269.35 39.4 269.65 39.7 269.86 40.1H269.88V39.07H271V45.7ZM267.66 45.35C268.06 45.35 268.39 45.27 268.66 45.11C268.94 44.94 269.16 44.73 269.33 44.47C269.5 44.19 269.62 43.89 269.7 43.55C269.78 43.22 269.82 42.88 269.82 42.54C269.82 42.23 269.78 41.91 269.71 41.6C269.63 41.3 269.51 41.02 269.35 40.78C269.19 40.52 268.98 40.32 268.71 40.17C268.45 40.02 268.13 39.95 267.76 39.95C267.38 39.95 267.05 40.02 266.78 40.17C266.51 40.31 266.28 40.51 266.11 40.75C265.94 40.99 265.81 41.27 265.73 41.59C265.65 41.91 265.61 42.24 265.61 42.59C265.61 42.91 265.65 43.24 265.71 43.57C265.78 43.89 265.89 44.19 266.05 44.47C266.21 44.73 266.42 44.94 266.68 45.11C266.94 45.27 267.27 45.35 267.66 45.35Z" fill="black"/></svg>